<?xml version="1.0" encoding="UTF-8"?> <svg xmlns="http://www.w3.org/2000/svg" width="80" height="80" viewBox="0 0 80 80" fill="none"><rect width="80" height="80" rx="16" fill="#FEFAEB"></rect><path d="M40.5 20L41.4011 19.5664C41.2345 19.2202 40.8842 19 40.5 19C40.1158 19 39.7655 19.2202 39.5989 19.5664L40.5 20ZM46.8345 33.1651L45.9334 33.5987C46.0769 33.897 46.3588 34.1049 46.6862 34.154L46.8345 33.1651ZM61 35.2892L61.7068 35.9966C61.9739 35.7297 62.0679 35.3351 61.9498 34.9764C61.8317 34.6178 61.5217 34.3562 61.1483 34.3002L61 35.2892ZM50.75 45.531L50.0432 44.8236C49.8145 45.0521 49.7104 45.3771 49.7637 45.6959L50.75 45.531ZM53.169 60L52.6942 60.8801C53.0302 61.0614 53.4402 61.0355 53.7507 60.8134C54.0613 60.5913 54.2183 60.2117 54.1553 59.8351L53.169 60ZM40.5 53.1651L40.9748 52.285C40.6785 52.1251 40.3215 52.1251 40.0252 52.285L40.5 53.1651ZM27.831 60L26.8447 59.8351C26.7817 60.2117 26.9387 60.5913 27.2493 60.8134C27.5598 61.0355 27.9698 61.0614 28.3058 60.8801L27.831 60ZM30.25 45.531L31.2363 45.6959C31.2896 45.3771 31.1855 45.0521 30.9568 44.8236L30.25 45.531ZM20 35.2892L19.8517 34.3002C19.4783 34.3562 19.1683 34.6178 19.0502 34.9764C18.9321 35.3351 19.0261 35.7297 19.2932 35.9966L20 35.2892ZM34.1655 33.1651L34.3138 34.154C34.6412 34.1049 34.9231 33.897 35.0666 33.5987L34.1655 33.1651ZM39.5989 20.4336L45.9334 33.5987L47.7356 32.7315L41.4011 19.5664L39.5989 20.4336ZM46.6862 34.154L60.8517 36.2781L61.1483 34.3002L46.9828 32.1761L46.6862 34.154ZM60.2932 34.5818L50.0432 44.8236L51.4568 46.2384L61.7068 35.9966L60.2932 34.5818ZM49.7637 45.6959L52.1827 60.1649L54.1553 59.8351L51.7363 45.3661L49.7637 45.6959ZM53.6438 59.1199L40.9748 52.285L40.0252 54.0452L52.6942 60.8801L53.6438 59.1199ZM40.0252 52.285L27.3562 59.1199L28.3058 60.8801L40.9748 54.0452L40.0252 52.285ZM28.8173 60.1649L31.2363 45.6959L29.2637 45.3661L26.8447 59.8351L28.8173 60.1649ZM30.9568 44.8236L20.7068 34.5818L19.2932 35.9966L29.5432 46.2384L30.9568 44.8236ZM20.1483 36.2781L34.3138 34.154L34.0172 32.1761L19.8517 34.3002L20.1483 36.2781ZM35.0666 33.5987L41.4011 20.4336L39.5989 19.5664L33.2644 32.7315L35.0666 33.5987Z" fill="#621D18"></path></svg> 