<?xml version="1.0" encoding="UTF-8"?> <svg xmlns="http://www.w3.org/2000/svg" width="80" height="80" viewBox="0 0 80 80" fill="none"><rect width="80" height="80" rx="16" fill="#FEFAEB"></rect><path d="M50 58V54C50 51.8783 49.1571 49.8434 47.6569 48.3431C46.1566 46.8429 44.1217 46 42 46H26C23.8783 46 21.8434 46.8429 20.3431 48.3431C18.8429 49.8434 18 51.8783 18 54V58M62 58V54C61.9987 52.2275 61.4087 50.5055 60.3227 49.1046C59.2368 47.7037 57.7163 46.7031 56 46.26M48 22.26C49.7208 22.7006 51.2461 23.7014 52.3353 25.1046C53.4245 26.5078 54.0157 28.2337 54.0157 30.01C54.0157 31.7863 53.4245 33.5122 52.3353 34.9154C51.2461 36.3186 49.7208 37.3194 48 37.76M42 30C42 34.4183 38.4183 38 34 38C29.5817 38 26 34.4183 26 30C26 25.5817 29.5817 22 34 22C38.4183 22 42 25.5817 42 30Z" stroke="#621D18" stroke-width="2" stroke-linecap="round" stroke-linejoin="round"></path></svg> 