<?xml version="1.0" encoding="UTF-8"?> <svg xmlns="http://www.w3.org/2000/svg" width="80" height="80" viewBox="0 0 80 80" fill="none"><rect width="80" height="80" rx="16" fill="#FEFAEB"></rect><path d="M24 34.6L23.3813 33.8144C23.1405 34.004 23 34.2935 23 34.6H24ZM40 22L40.6187 21.2144C40.2557 20.9285 39.7443 20.9285 39.3813 21.2144L40 22ZM56 34.6H57C57 34.2935 56.8595 34.004 56.6187 33.8144L56 34.6ZM24 54.4H23H24ZM33.6667 58C33.6667 58.5523 34.1144 59 34.6667 59C35.219 59 35.6667 58.5523 35.6667 58H33.6667ZM34.6667 40V39C34.1144 39 33.6667 39.4477 33.6667 40H34.6667ZM45.3333 40H46.3333C46.3333 39.4477 45.8856 39 45.3333 39V40ZM44.3333 58C44.3333 58.5523 44.781 59 45.3333 59C45.8856 59 46.3333 58.5523 46.3333 58H44.3333ZM24.6187 35.3856L40.6187 22.7856L39.3813 21.2144L23.3813 33.8144L24.6187 35.3856ZM39.3813 22.7856L55.3813 35.3856L56.6187 33.8144L40.6187 21.2144L39.3813 22.7856ZM55 34.6V54.4H57V34.6H55ZM55 54.4C55 55.0935 54.7278 55.7562 54.2471 56.2429L55.6701 57.6483C56.523 56.7847 57 55.616 57 54.4H55ZM54.2471 56.2429C53.7669 56.7291 53.1182 57 52.4444 57V59C53.6567 59 54.8167 58.5123 55.6701 57.6483L54.2471 56.2429ZM52.4444 57H27.5556V59H52.4444V57ZM27.5556 57C26.8818 57 26.2331 56.7291 25.7529 56.2429L24.3299 57.6483C25.1833 58.5123 26.3433 59 27.5556 59V57ZM25.7529 56.2429C25.2722 55.7562 25 55.0935 25 54.4H23C23 55.616 23.477 56.7847 24.3299 57.6483L25.7529 56.2429ZM25 54.4V34.6H23V54.4H25ZM35.6667 58V40H33.6667V58H35.6667ZM34.6667 41H45.3333V39H34.6667V41ZM44.3333 40V58H46.3333V40H44.3333Z" fill="#621D18"></path></svg> 