<svg width="240" height="234" viewBox="0 0 240 234" fill="none" xmlns="http://www.w3.org/2000/svg">
<path d="M196.176 3.63049C192.338 1.84732 188.417 0 180.632 0C172.847 0 168.9 1.84732 165.081 3.63049C161.262 5.41367 157.693 7.0878 150.311 7.0878C142.929 7.0878 139.353 5.40725 135.515 3.63049C131.677 1.85373 127.756 0 119.971 0C112.186 0 108.246 1.84732 104.433 3.63049C100.621 5.41367 97.0452 7.0878 89.6634 7.0878C82.2815 7.0878 78.6929 5.40725 74.8933 3.63049C71.0936 1.85373 67.134 0 59.3491 0C51.5643 0 47.6175 1.84732 43.805 3.63049C39.9925 5.41367 36.4168 7.0878 29.0349 7.0878C21.653 7.0878 18.0645 5.40725 14.2648 3.63049C10.6634 1.94353 6.94688 0.211671 0 0.0192421V1.84732C6.53109 2.03333 9.91498 3.61766 13.4972 5.2918C17.3352 7.07497 21.25 8.91587 29.0349 8.91587C36.8198 8.91587 40.7665 7.07497 44.579 5.2918C48.3915 3.50862 51.9673 1.83449 59.3491 1.83449C66.731 1.83449 70.3196 3.50862 74.1192 5.28538C77.9189 7.06214 81.8785 8.91587 89.6634 8.91587C97.4482 8.91587 101.389 7.07497 105.201 5.2918C109.014 3.50862 112.596 1.83449 119.971 1.83449C127.347 1.83449 130.942 3.50862 134.741 5.28538C138.541 7.06214 142.501 8.91587 150.292 8.91587C158.083 8.91587 162.024 7.07497 165.836 5.2918C169.648 3.50862 173.231 1.83449 180.613 1.83449C187.994 1.83449 191.583 3.50862 195.383 5.28538C199.182 7.06214 203.142 8.91587 210.933 8.91587C218.724 8.91587 222.665 7.07497 226.484 5.2918C230.059 3.62408 233.45 2.03975 239.981 1.85373V0.0192421C233.028 0.211671 229.311 1.94353 225.71 3.63049C221.872 5.40725 218.315 7.0878 210.933 7.0878C203.551 7.0878 199.982 5.40725 196.176 3.63049Z" fill="#DDD8C6"/>
<path d="M196.176 17.697C192.338 15.9139 188.417 14.0666 180.632 14.0666C172.847 14.0666 168.9 15.9139 165.081 17.697C161.262 19.4802 157.693 21.1544 150.311 21.1544C142.929 21.1544 139.353 19.4738 135.515 17.697C131.677 15.9203 127.756 14.0666 119.971 14.0666C112.186 14.0666 108.246 15.9139 104.433 17.697C100.621 19.4802 97.0452 21.1544 89.6634 21.1544C82.2815 21.1544 78.6929 19.4738 74.8933 17.697C71.0936 15.9203 67.1532 14.0666 59.3939 14.0666C51.6346 14.0666 47.6623 15.9139 43.8498 17.697C40.0373 19.4802 36.4615 21.1544 29.0797 21.1544C21.6978 21.1544 18.1092 19.4738 14.3095 17.697C10.7082 16.0165 6.99166 14.2782 0.044782 14.0858V15.9139C6.57587 16.0999 9.95976 17.6842 13.5419 19.3583C17.38 21.1415 21.2948 22.9824 29.0797 22.9824C36.8645 22.9824 40.8113 21.1415 44.6238 19.3583C48.4363 17.5752 52.0121 15.901 59.3939 15.901C66.7758 15.901 70.3643 17.5816 74.164 19.3583C77.9637 21.1351 81.9233 22.9824 89.7082 22.9824C97.493 22.9824 101.433 21.1415 105.246 19.3583C109.058 17.5752 112.641 15.901 120.016 15.901C127.391 15.901 130.986 17.5752 134.786 19.3519C138.586 21.1287 142.552 22.9824 150.311 22.9824C158.07 22.9824 162.043 21.1415 165.855 19.3583C169.668 17.5752 173.25 15.901 180.632 15.901C188.014 15.901 191.602 17.5816 195.402 19.3583C199.201 21.1351 203.161 22.9824 210.952 22.9824C218.744 22.9824 222.684 21.1415 226.503 19.3583C230.079 17.6842 233.469 16.0999 240 15.9139V14.0858C233.047 14.2782 229.33 16.0101 225.729 17.697C221.891 19.4738 218.334 21.1544 210.952 21.1544C203.57 21.1544 199.982 19.4738 196.176 17.697Z" fill="#DDD8C6"/>
<path d="M196.176 31.7636C192.338 29.9804 188.417 28.1395 180.632 28.1395C172.847 28.1395 168.9 29.9804 165.081 31.7636C161.262 33.5468 157.693 35.2209 150.311 35.2209C142.929 35.2209 139.341 33.5404 135.535 31.7636C131.728 29.9868 127.775 28.1395 119.99 28.1395C112.206 28.1395 108.265 29.9804 104.453 31.7636C100.64 33.5468 97.0644 35.2209 89.6826 35.2209C82.3007 35.2209 78.7121 33.5404 74.9125 31.7636C71.1128 29.9868 67.1532 28.1395 59.3683 28.1395C51.5835 28.1395 47.6367 29.9804 43.8242 31.7636C40.0117 33.5468 36.4359 35.2209 29.0541 35.2209C21.6722 35.2209 18.0836 33.5404 14.284 31.7636C10.6826 30.0831 6.96607 28.3448 0.0191895 28.1524V29.974C6.55028 30.1536 9.93417 31.7379 13.5164 33.4121C17.3544 35.1953 21.2692 37.0362 29.0541 37.0362C36.8389 37.0362 40.7857 35.1953 44.5982 33.4121C48.4107 31.6289 51.9865 29.974 59.3939 29.974C66.8014 29.974 70.3643 31.6546 74.164 33.4313C77.9637 35.2081 81.9233 37.0554 89.7082 37.0554C97.493 37.0554 101.433 35.2145 105.246 33.4313C109.058 31.6481 112.615 29.974 119.99 29.974C127.366 29.974 130.961 31.6546 134.761 33.4313C138.56 35.2081 142.552 37.0297 150.311 37.0297C158.07 37.0297 162.043 35.1888 165.855 33.4057C169.668 31.6225 173.256 29.974 180.632 29.974C188.007 29.974 191.602 31.6546 195.402 33.4313C199.201 35.2081 203.161 37.0297 210.952 37.0297C218.744 37.0297 222.684 35.1888 226.503 33.4057C230.079 31.7315 233.469 30.1472 240 29.9676V28.1524C233.047 28.3448 229.33 30.0766 225.729 31.7636C221.891 33.5404 218.334 35.2209 210.952 35.2209C203.57 35.2209 199.982 33.5404 196.176 31.7636Z" fill="#DDD8C6"/>
<path d="M196.176 45.8302C192.338 44.047 188.417 42.2061 180.632 42.2061C172.847 42.2061 168.9 44.047 165.081 45.8302C161.262 47.6133 157.693 49.2875 150.311 49.2875C142.929 49.2875 139.341 47.6069 135.535 45.8302C131.728 44.0534 127.775 42.2061 119.99 42.2061C112.206 42.2061 108.265 44.047 104.453 45.8302C100.64 47.6133 97.0644 49.2875 89.6826 49.2875C82.3007 49.2875 78.7121 47.6069 74.9125 45.8302C71.1128 44.0534 67.1532 42.2061 59.3683 42.2061C51.5835 42.2061 47.6367 44.047 43.8242 45.8302C40.0117 47.6133 36.4359 49.2875 29.0541 49.2875C21.6722 49.2875 18.0836 47.6069 14.284 45.8302C10.6826 44.1496 6.96607 42.4113 0.0191895 42.2189V44.0855C6.55028 44.2651 9.93417 45.8494 13.5164 47.5235C17.3544 49.3067 21.2692 51.154 29.0541 51.154C36.8389 51.154 40.7857 49.3067 44.5982 47.5235C48.4107 45.7404 51.9865 44.0662 59.3683 44.0662C66.7502 44.0662 70.3388 45.7468 74.1384 47.5235C77.9381 49.3003 81.8977 51.154 89.6826 51.154C97.4674 51.154 101.408 49.3067 105.22 47.5235C109.033 45.7404 112.615 44.0662 119.99 44.0662C127.366 44.0662 130.961 45.7468 134.761 47.5235C138.56 49.3003 142.552 51.1412 150.311 51.1412C158.07 51.1412 162.043 49.2939 165.855 47.5107C169.668 45.7275 173.25 44.0534 180.632 44.0534C188.014 44.0534 191.602 45.7339 195.402 47.5107C199.201 49.2875 203.161 51.1412 210.952 51.1412C218.744 51.1412 222.684 49.2939 226.503 47.5107C230.079 45.8366 233.469 44.2522 240 44.0726V42.2382C233.047 42.4306 229.33 44.1624 225.729 45.8494C221.891 47.6262 218.334 49.3067 210.952 49.3067C203.57 49.3067 199.982 47.6069 196.176 45.8302Z" fill="#DDD8C6"/>
<path d="M196.176 59.8967C192.338 58.1135 188.417 56.2726 180.632 56.2726C172.847 56.2726 168.9 58.1135 165.081 59.8967C161.262 61.6799 157.693 63.3284 150.311 63.3284C142.929 63.3284 139.341 61.6542 135.535 59.8711C131.728 58.0879 127.775 56.2726 119.99 56.2726C112.206 56.2726 108.265 58.1135 104.453 59.8967C100.64 61.6799 97.0644 63.3284 89.6826 63.3284C82.3007 63.3284 78.7121 61.6542 74.9125 59.8711C71.1128 58.0879 67.1532 56.2726 59.3939 56.2726C51.6346 56.2726 47.6623 58.1135 43.8498 59.8967C40.0373 61.6799 36.4359 63.3284 29.0541 63.3284C21.6722 63.3284 18.0836 61.6542 14.284 59.8711C10.6826 58.1905 6.96607 56.4522 0.0191895 56.2662V58.0943C6.55028 58.2803 9.93417 59.8646 13.5164 61.5324C17.3544 63.3155 21.2692 65.1629 29.0541 65.1629C36.8389 65.1629 40.7857 63.3155 44.5982 61.5324C48.4107 59.7492 51.9865 58.0751 59.3683 58.0751C66.7502 58.0751 70.3388 59.7556 74.1384 61.5324C77.9381 63.3091 81.8977 65.1629 89.6826 65.1629C97.4674 65.1629 101.408 63.3155 105.22 61.5324C109.033 59.7492 112.615 58.0751 119.99 58.0751C127.366 58.0751 130.961 59.7556 134.761 61.5324C138.56 63.3091 142.52 65.1629 150.311 65.1629C158.102 65.1629 162.043 63.3155 165.855 61.5324C169.668 59.7492 173.25 58.0751 180.632 58.0751C188.014 58.0751 191.602 59.7556 195.402 61.5324C199.201 63.3091 203.161 65.1629 210.952 65.1629C218.744 65.1629 222.684 63.3155 226.503 61.5324C230.079 59.8646 233.469 58.2803 240 58.0943V56.2726C233.047 56.4587 229.33 58.1969 225.729 59.8775C221.891 61.6606 218.334 63.3348 210.952 63.3348C203.57 63.3348 199.982 61.6799 196.176 59.8967Z" fill="#DDD8C6"/>
<path d="M196.176 73.9697C192.338 72.1865 188.417 70.3392 180.632 70.3392C172.847 70.3392 168.9 72.1865 165.081 73.9697C161.262 75.7529 157.693 77.4398 150.311 77.4398C142.929 77.4398 139.341 75.7657 135.535 73.9889C131.728 72.2122 127.775 70.3584 119.99 70.3584C112.206 70.3584 108.265 72.2057 104.453 73.9889C100.64 75.7721 97.0644 77.4398 89.6826 77.4398C82.3007 77.4398 78.7121 75.7657 74.9125 73.9889C71.1128 72.2122 67.1532 70.3584 59.3683 70.3584C51.5835 70.3584 47.6367 72.2057 43.8242 73.9889C40.0117 75.7721 36.4359 77.4398 29.0541 77.4398C21.6722 77.4398 18.0836 75.7657 14.284 73.9889C10.6826 72.302 6.96607 70.5637 0.0191895 70.3777V72.2057C6.55028 72.3918 9.93417 73.9761 13.5164 75.6438C17.3544 77.427 21.2692 79.2743 29.0541 79.2743C36.8389 79.2743 40.7857 77.427 44.5982 75.6438C48.4107 73.8606 51.9865 72.1865 59.3683 72.1865C66.7502 72.1865 70.3388 73.8671 74.1384 75.6438C77.9381 77.4206 81.8977 79.2743 89.6826 79.2743C97.4674 79.2743 101.408 77.427 105.22 75.6438C109.033 73.8606 112.615 72.1865 119.99 72.1865C127.366 72.1865 130.961 73.8671 134.761 75.6438C138.56 77.4206 142.52 79.2743 150.311 79.2743C158.102 79.2743 162.043 77.427 165.855 75.6438C169.668 73.8606 173.25 72.1865 180.632 72.1865C188.014 72.1865 191.602 73.8671 195.402 75.6438C199.201 77.4206 203.161 79.2743 210.952 79.2743C218.744 79.2743 222.684 77.427 226.503 75.6438C230.079 73.9761 233.469 72.3918 240 72.2057V70.3841C233.047 70.5701 229.33 72.3084 225.729 73.9953C221.891 75.7721 218.334 77.4462 210.952 77.4462C203.57 77.4462 199.982 75.7464 196.176 73.9697Z" fill="#DDD8C6"/>
<path d="M196.176 88.0362C192.338 86.2531 188.417 84.4057 180.632 84.4057C172.847 84.4057 168.9 86.2531 165.081 88.0362C161.262 89.8194 157.693 91.4935 150.311 91.4935C142.929 91.4935 139.341 89.813 135.535 88.0362C131.728 86.2595 127.775 84.4057 119.99 84.4057C112.206 84.4057 108.265 86.2531 104.453 88.0362C100.64 89.8194 97.0644 91.4935 89.6826 91.4935C82.3007 91.4935 78.7121 89.813 74.9125 88.0362C71.1128 86.2595 67.1532 84.4057 59.3683 84.4057C51.5835 84.4057 47.6367 86.2531 43.8242 88.0362C40.0117 89.8194 36.4359 91.4935 29.0541 91.4935C21.6722 91.4935 18.0836 89.813 14.284 88.0362C10.6826 86.3493 6.96607 84.6174 0.0191895 84.425V86.2531C6.55028 86.4391 9.93417 88.0234 13.5164 89.6975C17.3544 91.4807 21.2692 93.3216 29.0541 93.3216C36.8389 93.3216 40.7857 91.4807 44.5982 89.6975C48.4107 87.9144 51.9865 86.2402 59.3683 86.2402C66.7502 86.2402 70.3388 87.9144 74.1384 89.6911C77.9381 91.4679 81.8977 93.3216 89.6826 93.3216C97.4674 93.3216 101.408 91.4807 105.22 89.6975C109.033 87.9144 112.615 86.2402 119.99 86.2402C127.366 86.2402 130.961 87.9144 134.761 89.6911C138.56 91.4679 142.52 93.3216 150.311 93.3216C158.102 93.3216 162.043 91.4807 165.855 89.6975C169.668 87.9144 173.25 86.2402 180.632 86.2402C188.014 86.2402 191.602 87.9144 195.402 89.6911C199.201 91.4679 203.161 93.3216 210.952 93.3216C218.744 93.3216 222.684 91.4807 226.503 89.6975C230.079 88.0298 233.469 86.4455 240 86.2595V84.4314C233.047 84.6238 229.33 86.3557 225.729 88.0426C221.891 89.8194 218.334 91.5 210.952 91.5C203.57 91.5 199.982 89.813 196.176 88.0362Z" fill="#DDD8C6"/>
<path d="M196.176 102.103C192.338 100.32 188.417 98.4723 180.632 98.4723C172.847 98.4723 168.9 100.32 165.081 102.103C161.262 103.886 157.693 105.56 150.311 105.56C142.929 105.56 139.341 103.88 135.535 102.103C131.728 100.326 127.775 98.4723 119.99 98.4723C112.206 98.4723 108.265 100.32 104.453 102.103C100.64 103.886 97.0644 105.56 89.6826 105.56C82.3007 105.56 78.7121 103.88 74.9125 102.103C71.1128 100.326 67.1532 98.4723 59.3683 98.4723C51.5835 98.4723 47.6367 100.32 43.8242 102.103C40.0117 103.886 36.4359 105.56 29.0541 105.56C21.6722 105.56 18.0836 103.88 14.284 102.103C10.6826 100.422 6.96607 98.684 0.0191895 98.4915V100.326C6.55028 100.506 9.93417 102.09 13.5164 103.764C17.3544 105.547 21.2692 107.388 29.0541 107.388C36.8389 107.388 40.7857 105.547 44.5982 103.764C48.4107 101.981 51.9865 100.307 59.3683 100.307C66.7502 100.307 70.3388 101.987 74.1384 103.764C77.9381 105.541 81.8977 107.388 89.6826 107.388C97.4674 107.388 101.408 105.547 105.22 103.764C109.033 101.981 112.615 100.307 119.99 100.307C127.366 100.307 130.961 101.981 134.761 103.758C138.56 105.534 142.52 107.388 150.311 107.388C158.102 107.388 162.043 105.547 165.855 103.764C169.668 101.981 173.25 100.307 180.632 100.307C188.014 100.307 191.602 101.987 195.402 103.764C199.201 105.541 203.161 107.388 210.952 107.388C218.744 107.388 222.684 105.547 226.503 103.764C230.079 102.09 233.469 100.506 240 100.326V98.4915C233.047 98.684 229.33 100.416 225.729 102.103C221.891 103.88 218.334 105.56 210.952 105.56C203.57 105.56 199.982 103.88 196.176 102.103Z" fill="#DDD8C6"/>
<path d="M196.176 116.169C192.338 114.386 188.417 112.545 180.632 112.545C172.847 112.545 168.9 114.386 165.081 116.169C161.262 117.953 157.693 119.627 150.311 119.627C142.929 119.627 139.341 117.946 135.535 116.169C131.728 114.393 127.775 112.545 119.99 112.545C112.206 112.545 108.265 114.386 104.453 116.169C100.64 117.953 97.0644 119.627 89.6826 119.627C82.3007 119.627 78.7121 117.946 74.9125 116.169C71.1128 114.393 67.1532 112.545 59.3683 112.545C51.5835 112.545 47.6367 114.386 43.8242 116.169C40.0117 117.953 36.4359 119.627 29.0541 119.627C21.6722 119.627 18.0836 117.946 14.284 116.169C10.6826 114.489 6.96607 112.751 0.0191895 112.558V114.393C6.55028 114.572 9.93417 116.157 13.5164 117.831C17.3544 119.614 21.2692 121.455 29.0541 121.455C36.8389 121.455 40.7857 119.614 44.5982 117.831C48.4107 116.047 51.9865 114.373 59.3683 114.373C66.7502 114.373 70.3388 116.054 74.1384 117.831C77.9381 119.607 81.8977 121.455 89.6826 121.455C97.4674 121.455 101.408 119.614 105.22 117.831C109.033 116.047 112.615 114.373 119.99 114.373C127.366 114.373 130.961 116.054 134.761 117.831C138.56 119.607 142.52 121.455 150.311 121.455C158.102 121.455 162.043 119.614 165.855 117.831C169.668 116.047 173.25 114.373 180.632 114.373C188.014 114.373 191.602 116.054 195.402 117.831C199.201 119.607 203.161 121.455 210.952 121.455C218.744 121.455 222.684 119.614 226.503 117.831C230.079 116.157 233.469 114.572 240 114.393V112.558C233.047 112.751 229.33 114.482 225.729 116.169C221.891 117.946 218.334 119.627 210.952 119.627C203.57 119.627 199.982 117.946 196.176 116.169Z" fill="#DDD8C6"/>
<path d="M196.176 130.236C192.338 128.453 188.417 126.612 180.632 126.612C172.847 126.612 168.9 128.453 165.081 130.236C161.262 132.019 157.693 133.693 150.311 133.693C142.929 133.693 139.341 132.013 135.535 130.236C131.728 128.459 127.775 126.612 119.99 126.612C112.206 126.612 108.265 128.453 104.453 130.236C100.64 132.019 97.0644 133.693 89.6826 133.693C82.3007 133.693 78.7121 132.013 74.9125 130.236C71.1128 128.459 67.1532 126.612 59.3683 126.612C51.5835 126.612 47.6367 128.453 43.8242 130.236C40.0117 132.019 36.4359 133.693 29.0541 133.693C21.6722 133.693 18.0836 132.013 14.284 130.236C10.6826 128.555 6.96607 126.817 0.0191895 126.625V128.459C6.55028 128.639 9.93417 130.223 13.5164 131.897C17.3544 133.68 21.2692 135.528 29.0541 135.528C36.8389 135.528 40.7857 133.68 44.5982 131.897C48.4107 130.114 51.9865 128.44 59.3683 128.44C66.7502 128.44 70.3388 130.12 74.1384 131.897C77.9381 133.674 81.8977 135.528 89.6826 135.528C97.4674 135.528 101.408 133.68 105.22 131.897C109.033 130.114 112.615 128.44 119.99 128.44C127.366 128.44 130.961 130.12 134.761 131.897C138.56 133.674 142.52 135.528 150.311 135.528C158.102 135.528 162.043 133.68 165.855 131.897C169.668 130.114 173.25 128.44 180.632 128.44C188.014 128.44 191.602 130.12 195.402 131.897C199.201 133.674 203.161 135.528 210.952 135.528C218.744 135.528 222.684 133.68 226.503 131.897C230.079 130.223 233.469 128.639 240 128.459V126.625C233.047 126.817 229.33 128.549 225.729 130.236C221.891 132.013 218.334 133.693 210.952 133.693C203.57 133.693 199.982 132.013 196.176 130.236Z" fill="#DDD8C6"/>
<path d="M196.176 144.302C192.338 142.519 188.417 140.678 180.632 140.678C172.847 140.678 168.9 142.519 165.081 144.302C161.262 146.086 157.693 147.76 150.311 147.76C142.929 147.76 139.353 146.073 135.515 144.302C131.677 142.532 127.756 140.678 119.971 140.678C112.186 140.678 108.246 142.519 104.433 144.302C100.621 146.086 97.0452 147.76 89.6634 147.76C82.2815 147.76 78.6929 146.086 74.8933 144.302C71.0936 142.519 67.134 140.678 59.3491 140.678C51.5643 140.678 47.6175 142.519 43.805 144.302C39.9925 146.086 36.4168 147.76 29.0349 147.76C21.653 147.76 18.0645 146.086 14.2648 144.302C10.6634 142.622 6.94688 140.884 0 140.698V142.526C6.53109 142.712 9.91498 144.296 13.4972 145.964C17.3352 147.747 21.25 149.594 29.0349 149.594C36.8198 149.594 40.7665 147.747 44.579 145.964C48.3915 144.181 51.9673 142.506 59.3491 142.506C66.731 142.506 70.3196 144.187 74.1192 145.964C77.9189 147.741 81.8785 149.594 89.6634 149.594C97.4482 149.594 101.389 147.747 105.201 145.964C109.014 144.181 112.596 142.506 119.971 142.506C127.347 142.506 130.942 144.187 134.741 145.964C138.541 147.741 142.501 149.594 150.292 149.594C158.083 149.594 162.024 147.747 165.836 145.964C169.648 144.181 173.231 142.506 180.613 142.506C187.994 142.506 191.583 144.187 195.383 145.964C199.182 147.741 203.142 149.594 210.933 149.594C218.724 149.594 222.665 147.747 226.484 145.964C230.059 144.296 233.45 142.712 239.981 142.526V140.698C233.028 140.884 229.311 142.622 225.71 144.302C221.872 146.086 218.315 147.76 210.933 147.76C203.551 147.76 199.982 146.073 196.176 144.302Z" fill="#DDD8C6"/>
<path d="M196.176 158.375C192.338 156.592 188.417 154.745 180.632 154.745C172.847 154.745 168.9 156.592 165.081 158.375C161.262 160.159 157.693 161.826 150.311 161.826C142.929 161.826 139.353 160.184 135.515 158.375C131.677 156.567 127.756 154.745 119.971 154.745C112.186 154.745 108.246 156.592 104.433 158.375C100.621 160.159 97.0452 161.826 89.6634 161.826C82.2815 161.826 78.6929 160.152 74.8933 158.375C71.0936 156.599 67.134 154.745 59.3491 154.745C51.5643 154.745 47.6175 156.592 43.805 158.375C39.9925 160.159 36.4168 161.826 29.0349 161.826C21.653 161.826 18.0645 160.152 14.2648 158.375C10.6634 156.688 6.94688 154.95 0 154.764V156.592C6.53109 156.778 9.91498 158.363 13.4972 160.03C17.3352 161.813 21.25 163.661 29.0349 163.661C36.8198 163.661 40.7665 161.813 44.579 160.03C48.3915 158.247 51.9673 156.573 59.3491 156.573C66.731 156.573 70.3196 158.254 74.1192 160.03C77.9189 161.807 81.8785 163.661 89.6634 163.661C97.4482 163.661 101.389 161.813 105.201 160.03C109.014 158.247 112.596 156.573 119.971 156.573C127.347 156.573 130.942 158.254 134.741 160.03C138.541 161.807 142.501 163.661 150.292 163.661C158.083 163.661 162.024 161.813 165.836 160.03C169.648 158.247 173.231 156.573 180.613 156.573C187.994 156.573 191.583 158.254 195.383 160.03C199.182 161.807 203.142 163.661 210.933 163.661C218.724 163.661 222.665 161.813 226.484 160.03C230.059 158.363 233.45 156.778 239.981 156.592V154.764C233.028 154.95 229.311 156.688 225.71 158.375C221.872 160.152 218.315 161.826 210.933 161.826C203.551 161.826 199.982 160.184 196.176 158.375Z" fill="#DDD8C6"/>
<path d="M196.176 172.442C192.338 170.659 188.417 168.812 180.632 168.812C172.847 168.812 168.9 170.659 165.081 172.442C161.262 174.225 157.693 175.899 150.311 175.899C142.929 175.899 139.341 174.219 135.535 172.442C131.728 170.665 127.775 168.812 119.99 168.812C112.206 168.812 108.265 170.659 104.453 172.442C100.64 174.225 97.0644 175.899 89.6826 175.899C82.3007 175.899 78.7121 174.219 74.9125 172.442C71.1128 170.665 67.1532 168.812 59.3683 168.812C51.5835 168.812 47.6367 170.659 43.8242 172.442C40.0117 174.225 36.4359 175.899 29.0541 175.899C21.6722 175.899 18.0836 174.219 14.284 172.442C10.6826 170.755 6.96607 169.023 0.0191895 168.831V170.659C6.55028 170.845 9.93417 172.429 13.5164 174.103C17.3544 175.886 21.2692 177.727 29.0541 177.727C36.8389 177.727 40.7857 175.886 44.5982 174.103C48.4107 172.32 51.9865 170.646 59.3683 170.646C66.7502 170.646 70.3388 172.32 74.1384 174.097C77.9381 175.874 81.8977 177.727 89.6826 177.727C97.4674 177.727 101.408 175.886 105.22 174.103C109.033 172.32 112.615 170.646 119.99 170.646C127.366 170.646 130.961 172.32 134.761 174.097C138.56 175.874 142.52 177.727 150.311 177.727C158.102 177.727 162.043 175.886 165.855 174.103C169.668 172.32 173.25 170.646 180.632 170.646C188.014 170.646 191.602 172.32 195.402 174.097C199.201 175.874 203.161 177.727 210.952 177.727C218.744 177.727 222.684 175.886 226.503 174.103C230.079 172.436 233.469 170.851 240 170.665V168.837C233.047 169.03 229.33 170.761 225.729 172.448C221.891 174.225 218.334 175.906 210.952 175.906C203.57 175.906 199.982 174.219 196.176 172.442Z" fill="#DDD8C6"/>
<path d="M196.176 186.483C192.338 184.7 188.417 182.852 180.632 182.852C172.847 182.852 168.9 184.7 165.081 186.483C161.262 188.266 157.693 189.94 150.311 189.94C142.929 189.94 139.353 188.285 135.515 186.483C131.677 184.68 127.756 182.852 119.971 182.852C112.186 182.852 108.246 184.7 104.433 186.483C100.621 188.266 97.0452 189.94 89.6634 189.94C82.2815 189.94 78.6929 188.26 74.8933 186.483C71.0936 184.706 67.134 182.852 59.3491 182.852C51.5643 182.852 47.6175 184.7 43.805 186.483C39.9925 188.266 36.4168 189.94 29.0349 189.94C21.653 189.94 18.0645 188.26 14.2648 186.483C10.6634 184.802 6.94688 183.064 0 182.872V184.706C6.53109 184.886 9.91498 186.47 13.4972 188.144C17.3352 189.927 21.25 191.768 29.0349 191.768C36.8198 191.768 40.7665 189.927 44.579 188.144C48.3915 186.361 51.9673 184.687 59.3491 184.687C66.731 184.687 70.3196 186.367 74.1192 188.144C77.9189 189.921 81.8785 191.768 89.6634 191.768C97.4482 191.768 101.389 189.927 105.201 188.144C109.014 186.361 112.596 184.687 119.971 184.687C127.347 184.687 130.942 186.361 134.741 188.138C138.541 189.915 142.501 191.768 150.292 191.768C158.083 191.768 162.024 189.927 165.836 188.144C169.648 186.361 173.231 184.687 180.613 184.687C187.994 184.687 191.583 186.367 195.383 188.144C199.182 189.921 203.142 191.768 210.933 191.768C218.724 191.768 222.665 189.927 226.484 188.144C230.059 186.47 233.45 184.886 239.981 184.706V182.872C233.028 183.064 229.311 184.796 225.71 186.483C221.872 188.26 218.315 189.94 210.933 189.94C203.551 189.94 199.982 188.285 196.176 186.483Z" fill="#DDD8C6"/>
<path d="M196.176 200.594C192.338 198.811 188.417 196.97 180.632 196.97C172.847 196.97 168.9 198.811 165.081 200.594C161.262 202.378 157.693 204.052 150.311 204.052C142.929 204.052 139.353 202.352 135.515 200.594C131.677 198.837 127.756 196.97 119.971 196.97C112.186 196.97 108.246 198.811 104.433 200.594C100.621 202.378 97.0452 204.052 89.6634 204.052C82.2815 204.052 78.6929 202.371 74.8933 200.594C71.0936 198.818 67.134 196.97 59.3491 196.97C51.5643 196.97 47.6175 198.811 43.805 200.594C39.9925 202.378 36.4168 204.052 29.0349 204.052C21.653 204.052 18.0645 202.371 14.2648 200.594C10.6634 198.914 6.94688 197.176 0 196.983V198.818C6.53109 198.997 9.91498 200.582 13.4972 202.256C17.3352 204.039 21.25 205.88 29.0349 205.88C36.8198 205.88 40.7665 204.039 44.579 202.256C48.3915 200.472 51.9673 198.798 59.3491 198.798C66.731 198.798 70.3196 200.479 74.1192 202.256C77.9189 204.032 81.8785 205.88 89.6634 205.88C97.4482 205.88 101.389 204.039 105.201 202.256C109.014 200.472 112.596 198.798 119.971 198.798C127.347 198.798 130.942 200.479 134.741 202.256C138.541 204.032 142.501 205.88 150.292 205.88C158.083 205.88 162.024 204.039 165.836 202.256C169.648 200.472 173.231 198.798 180.613 198.798C187.994 198.798 191.583 200.479 195.383 202.256C199.182 204.032 203.142 205.88 210.933 205.88C218.724 205.88 222.665 204.039 226.484 202.256C230.059 200.582 233.45 198.997 239.981 198.818V196.983C233.028 197.176 229.311 198.907 225.71 200.594C221.872 202.371 218.315 204.052 210.933 204.052C203.551 204.052 199.982 202.352 196.176 200.594Z" fill="#DDD8C6"/>
<path d="M196.176 214.642C192.338 212.858 188.417 211.018 180.632 211.018C172.847 211.018 168.9 212.858 165.081 214.642C161.262 216.425 157.693 218.099 150.311 218.099C142.929 218.099 139.353 216.418 135.515 214.642C131.677 212.865 127.756 211.018 119.971 211.018C112.186 211.018 108.246 212.858 104.433 214.642C100.621 216.425 97.0452 218.099 89.6634 218.099C82.2815 218.099 78.6929 216.418 74.8933 214.642C71.0936 212.865 67.134 211.018 59.3491 211.018C51.5643 211.018 47.6175 212.858 43.805 214.642C39.9925 216.425 36.4168 218.099 29.0349 218.099C21.653 218.099 18.0645 216.418 14.2648 214.642C10.6634 212.961 6.94688 211.223 0 211.03V212.865C6.53109 213.044 9.91498 214.629 13.4972 216.303C17.3352 218.086 21.25 219.933 29.0349 219.933C36.8198 219.933 40.7665 218.086 44.579 216.303C48.3915 214.52 51.9673 212.846 59.3491 212.846C66.731 212.846 70.3196 214.526 74.1192 216.303C77.9189 218.08 81.8785 219.933 89.6634 219.933C97.4482 219.933 101.389 218.086 105.201 216.303C109.014 214.52 112.596 212.846 119.971 212.846C127.347 212.846 130.942 214.526 134.741 216.303C138.541 218.08 142.501 219.933 150.292 219.933C158.083 219.933 162.024 218.086 165.836 216.303C169.648 214.52 173.231 212.846 180.613 212.846C187.994 212.846 191.583 214.526 195.383 216.303C199.182 218.08 203.142 219.933 210.933 219.933C218.724 219.933 222.665 218.086 226.484 216.303C230.059 214.629 233.45 213.044 239.981 212.865V211.03C233.028 211.223 229.311 212.955 225.71 214.642C221.872 216.418 218.315 218.099 210.933 218.099C203.551 218.099 199.982 216.418 196.176 214.642Z" fill="#DDD8C6"/>
<path d="M196.176 228.708C192.338 226.925 188.417 225.084 180.632 225.084C172.847 225.084 168.9 226.925 165.081 228.708C161.262 230.491 157.693 232.166 150.311 232.166C142.929 232.166 139.341 230.491 135.535 228.708C131.728 226.925 127.775 225.084 119.99 225.084C112.206 225.084 108.265 226.925 104.453 228.708C100.64 230.491 97.0644 232.166 89.6826 232.166C82.3007 232.166 78.7121 230.491 74.9125 228.708C71.1128 226.925 67.1532 225.084 59.3683 225.084C51.5835 225.084 47.6367 226.925 43.8242 228.708C40.0117 230.491 36.4359 232.166 29.0541 232.166C21.6722 232.166 18.0836 230.491 14.284 228.708C10.6826 227.028 6.96607 225.289 0.0191895 225.103V226.931C6.55028 227.117 9.93417 228.702 13.5164 230.37C17.3544 232.153 21.2692 234 29.0541 234C36.8389 234 40.7857 232.153 44.5982 230.37C48.4107 228.586 51.9865 226.893 59.3939 226.893C66.8014 226.893 70.3643 228.574 74.164 230.35C77.9637 232.127 81.9233 233.981 89.7082 233.981C97.493 233.981 101.433 232.133 105.246 230.35C109.058 228.567 112.615 226.893 119.99 226.893C127.366 226.893 130.961 228.574 134.761 230.35C138.56 232.127 142.52 233.981 150.311 233.981C158.102 233.981 162.043 232.133 165.855 230.35C169.668 228.567 173.256 226.893 180.632 226.893C188.007 226.893 191.602 228.574 195.402 230.35C199.201 232.127 203.161 233.981 210.952 233.981C218.744 233.981 222.684 232.133 226.503 230.35C230.079 228.683 233.469 227.098 240 226.912V225.084C233.047 225.27 229.33 227.008 225.729 228.689C221.891 230.472 218.334 232.146 210.952 232.146C203.57 232.146 199.982 230.491 196.176 228.708Z" fill="#DDD8C6"/>
</svg>
