<?xml version="1.0" encoding="UTF-8"?> <svg xmlns="http://www.w3.org/2000/svg" width="80" height="48" viewBox="0 0 80 48" fill="none"><path d="M0.00734834 18.4433C0.00734834 13.4715 0.00990433 8.49946 0.0150201 3.52712C0.0211285 2.9575 0.0781475 2.38962 0.185372 1.83058C0.295104 1.24052 0.706412 0.828332 1.26735 0.74135C2.46367 0.557199 3.67149 0.372269 4.87394 0.344059C7.49064 0.282153 10.1127 0.235133 12.7271 0.337004C15.396 0.440442 18.0058 0.959198 20.4084 2.2412C23.121 3.68776 25.0486 5.86231 26.1421 8.79619C27.1397 11.4762 27.3629 14.2776 27.3553 17.1026C27.3499 19.1102 27.3384 21.1257 27.165 23.1231C26.8926 26.2576 25.9687 29.1821 23.8185 31.5564C22.4181 33.1041 20.7076 34.2035 18.7839 34.9558C16.4158 35.8812 13.938 36.2276 11.4272 36.2825C8.41377 36.3491 5.39882 36.324 2.38463 36.3279C2.06509 36.3197 1.74679 36.284 1.4331 36.2213C0.657299 36.0873 0.17156 35.5333 0.0518518 34.6133C0.00935668 34.1982 -0.0070437 33.7807 0.00274437 33.3635C0.00427909 28.3911 0.00581362 23.4178 0.00734834 18.4433ZM7.30724 18.2435C7.30724 21.9098 7.30724 25.5761 7.30724 29.2424C7.30724 30.0582 7.50445 30.2893 8.29636 30.2909C10.3682 30.2964 12.4401 30.3559 14.4598 29.7714C15.9362 29.3451 17.2162 28.6132 18.1362 27.3194C19.2834 25.7059 19.6786 23.8354 19.7899 21.9062C19.8912 20.1375 19.8919 18.3603 19.882 16.5869C19.872 14.747 19.7607 12.9172 19.2121 11.1361C18.4623 8.70685 16.8064 7.33395 14.4398 6.78228C12.3803 6.30271 10.2846 6.28312 8.18663 6.36696C7.43769 6.39674 7.30494 6.55738 7.30494 7.32298C7.30596 10.9658 7.30673 14.607 7.30724 18.2466V18.2435Z" fill="#F4F0E1" fill-opacity="0.7"></path><path d="M37.0846 29.7275C37.0846 31.347 37.0846 32.9646 37.0846 34.5805C37.0895 34.8159 37.0807 35.0514 37.0585 35.2857C36.991 35.868 36.7516 36.154 36.1922 36.2809C35.8934 36.3483 35.5887 36.3843 35.2828 36.3883C34.0551 36.4 32.8273 36.404 31.6034 36.3883C30.1185 36.3718 29.8077 36.0427 29.807 34.5327C29.807 24.005 29.8095 13.4768 29.8146 2.94803C29.8146 2.45905 29.8576 1.94421 30.0103 1.48579C30.3057 0.599514 31.0946 0.394206 31.8903 0.325247C33.2639 0.205353 34.6413 0.0901633 36.0187 0.0635202C38.2144 0.0248615 40.4106 0.0308678 42.6073 0.0815419C44.5564 0.127776 46.474 0.449061 48.2965 1.1841C50.7988 2.19419 52.5615 3.94245 53.338 6.63105C54.0793 9.19428 54.0555 11.8029 53.7892 14.4273C53.6242 16.0541 53.147 17.5837 52.2929 18.9825C51.3222 20.5732 49.9486 21.6836 48.3088 22.4696C45.8609 23.645 43.2442 23.9232 40.583 23.9679C39.5616 23.9851 38.5387 23.982 37.5135 23.9679C37.1859 23.9624 37.07 24.0525 37.0739 24.4075C37.0946 26.1808 37.0846 27.955 37.0846 29.7275ZM37.0846 12.0004C37.0846 13.7354 37.0915 15.4695 37.0785 17.2045C37.0785 17.5641 37.159 17.7232 37.5489 17.7013C38.1474 17.6684 38.749 17.6911 39.3491 17.6934C40.6781 17.6997 42.0026 17.6754 43.301 17.3165C45.194 16.7923 46.0182 15.6114 46.319 13.9203C46.5692 12.5153 46.5569 11.0946 46.3773 9.67307C46.1195 7.62625 44.9324 6.72744 43.291 6.37089C41.4539 5.97124 39.58 6.08252 37.7177 6.19614C37.1844 6.22905 37.0854 6.36932 37.0854 6.91394C37.0838 8.61126 37.0838 10.3075 37.0854 12.0028L37.0846 12.0004Z" fill="#F4F0E1" fill-opacity="0.7"></path><path d="M68.2103 4.58008e-05C70.9534 -0.00451645 73.6869 0.331775 76.3504 1.00151C76.7579 1.1026 77.1569 1.24522 77.5552 1.38392C78.1353 1.58609 78.4584 2.01082 78.3694 2.63223C78.2489 3.48089 78.0402 4.31623 77.8591 5.15549C77.7639 5.60059 77.6381 6.03941 77.5437 6.48764C77.3411 7.44836 76.7272 7.81118 75.7833 7.56748C74.2878 7.18194 72.7983 6.75016 71.282 6.47041C69.4127 6.12953 67.5219 6.09818 65.6488 6.53623C64.4978 6.80579 63.7634 7.52438 63.6038 8.73037C63.5006 9.53006 63.4598 10.3369 63.4818 11.1431C63.5163 12.5349 64.2668 13.4454 65.5345 13.8513C66.6026 14.1922 67.6977 14.4555 68.7927 14.7008C70.8224 15.1545 72.8858 15.4703 74.8364 16.2429C76.9244 17.0697 78.5597 18.4018 79.3477 20.625C79.8273 21.9791 79.9371 23.3966 79.9846 24.8212C80.0376 26.3783 79.9632 27.9291 79.6094 29.4446C78.842 32.7358 76.9958 35.0506 73.7376 36.0357C70.9029 36.8922 68.0038 37.0019 65.0825 36.7613C62.8993 36.5818 60.7615 36.1344 58.6497 35.5529C58.2069 35.4315 57.7695 35.2842 57.3398 35.1188C56.6254 34.8438 56.3215 34.3493 56.409 33.5625C56.4773 32.9544 56.5932 32.3519 56.7014 31.7492C56.8034 31.185 56.9369 30.6263 57.0313 30.0613C57.2308 28.8718 58.0412 28.6359 58.9559 28.9697C61.1176 29.7704 63.3662 30.3017 65.6526 30.5519C67.3247 30.7282 69.0045 30.6945 70.6259 30.1757C71.7393 29.82 72.5443 29.1202 72.73 27.8437C72.9249 26.5115 72.9395 25.1911 72.6533 23.877C72.4806 23.0934 71.955 22.5558 71.2498 22.2807C70.3589 21.9287 69.4467 21.6361 68.5187 21.4047C66.2504 20.8475 63.933 20.4902 61.7322 19.6619C59.2613 18.7317 57.5616 17.0399 56.8487 14.4116C56.1454 11.86 56.0997 9.16607 56.7159 6.59108C57.3866 3.76299 59.137 1.87212 61.8573 0.909829C63.9744 0.160687 66.1721 0.0423614 68.2103 4.58008e-05Z" fill="#F4F0E1" fill-opacity="0.7"></path><path d="M0.409445 44.2668C0.409445 43.614 0.417886 42.9621 0.409445 42.3077C0.403307 41.97 0.516876 41.7811 0.869861 41.8078C1.55204 41.8595 2.2419 41.8626 2.91334 41.9763C3.44128 42.0656 3.80347 42.4825 3.92855 42.995C4.13804 43.8609 4.20096 44.7487 3.85181 45.6044C3.75201 45.855 3.58824 46.0737 3.37757 46.2377C3.1669 46.4017 2.91703 46.505 2.65397 46.5369C2.05159 46.6278 1.43387 46.6208 0.823048 46.6458C0.516105 46.6584 0.397935 46.4891 0.404073 46.1757C0.42249 45.5456 0.409445 44.9062 0.409445 44.2668ZM1.33795 44.2252C1.33795 44.6555 1.3249 45.0872 1.34562 45.5151C1.35176 45.6342 1.43003 45.8105 1.52365 45.8552C1.99557 46.0801 2.85425 45.6984 2.97626 45.1836C3.07361 44.754 3.11693 44.3134 3.10518 43.8726C3.08676 42.9323 2.7261 42.6008 1.80067 42.5663C1.48145 42.5546 1.3203 42.6666 1.33104 43.013C1.34793 43.4166 1.33795 43.8217 1.33795 44.2252Z" fill="#F4F0E1" fill-opacity="0.7"></path><path d="M8.30633 45.4509C8.30633 44.7856 8.30173 44.1187 8.30633 43.455C8.30633 43.0122 8.48896 42.9158 8.89029 43.0514C9.05834 43.1086 9.28395 43.0741 9.45814 43.0099C10.1672 42.7473 11.0189 42.9573 11.2507 43.5944C11.563 44.4564 11.606 45.3795 11.1387 46.2008C10.821 46.7579 10.2063 46.8198 9.6331 46.6921C9.26707 46.6138 9.198 46.736 9.21719 47.051C9.22563 47.1944 9.21719 47.3386 9.22179 47.4812C9.24021 47.8143 9.11896 47.9984 8.76138 48C8.40379 48.0016 8.29482 47.8198 8.30096 47.4859C8.31247 46.8104 8.30633 46.1287 8.30633 45.4509ZM9.22102 44.8349C9.22102 45.0042 9.21412 45.1742 9.22102 45.3435C9.24327 45.7823 9.37449 45.9265 9.75357 45.9586C10.1326 45.9908 10.4549 45.8184 10.4948 45.4516C10.5426 45.0256 10.5407 44.5953 10.4895 44.1696C10.445 43.8068 10.125 43.6469 9.73285 43.6853C9.36682 43.7214 9.22716 43.9432 9.22102 44.288C9.21949 44.4705 9.22256 44.6531 9.22102 44.8349Z" fill="#F4F0E1" fill-opacity="0.7"></path><path d="M25.0877 44.2245C25.0877 43.585 25.1 42.9448 25.0831 42.3062C25.0739 41.9363 25.2251 41.7772 25.5796 41.7851C26.1167 41.796 26.6539 41.7686 27.1856 41.8125C27.8417 41.865 28.194 42.2341 28.3052 42.8931C28.4518 43.7629 28.2285 44.4603 27.6307 44.7267C27.2785 44.8835 26.868 44.9368 26.4797 44.9665C26.1459 44.9916 26.0193 45.1146 26.0446 45.4461C26.063 45.7188 26.0515 45.9946 26.0507 46.2681C26.0507 46.6074 25.8366 46.6686 25.5619 46.667C25.2872 46.6654 25.0823 46.6051 25.0854 46.2603C25.0915 45.5817 25.0854 44.9031 25.0854 44.2229L25.0877 44.2245ZM26.0477 43.3492C26.0477 43.5317 26.0223 43.7198 26.0576 43.8977C26.0784 43.998 26.1942 44.1469 26.2748 44.1516C26.5023 44.174 26.732 44.1509 26.9508 44.0834C27.3245 43.9494 27.4795 43.4902 27.3545 43.0193C27.2624 42.6713 26.8519 42.459 26.3769 42.5295C25.9019 42.6 26.0876 42.9934 26.0469 43.2739C26.0452 43.3 26.0455 43.3262 26.0477 43.3523V43.3492Z" fill="#F4F0E1" fill-opacity="0.7"></path><path d="M59.8422 41.7467C60.1368 41.7858 60.443 41.8133 60.743 41.8705C60.9732 41.9136 61.1137 42.0499 61.0431 42.3171C60.9786 42.5609 60.8896 42.756 60.5711 42.6925C60.2607 42.6228 59.9449 42.5808 59.6273 42.5671C59.325 42.5601 59.0733 42.6894 59.0318 43.0483C58.9889 43.4205 59.2106 43.6031 59.5168 43.6948C59.7731 43.7731 60.0386 43.8147 60.301 43.8711C61.3669 44.1007 61.4076 45.0222 61.215 45.8019C61.0538 46.4531 60.5451 46.6898 59.9711 46.7055C59.4431 46.7203 58.9075 46.6271 58.3826 46.537C58.058 46.4821 58.1309 46.1961 58.1731 45.9657C58.2207 45.7071 58.3911 45.6938 58.6098 45.7361C58.9831 45.8132 59.3601 45.8699 59.7393 45.9062C60.0962 45.9344 60.3233 45.7494 60.3647 45.3702C60.4085 44.9783 60.2358 44.7386 59.836 44.6382C59.5383 44.5599 59.2382 44.4988 58.9443 44.4133C58.3166 44.2308 58.0765 43.77 58.1356 42.8892C58.1747 42.296 58.533 41.894 59.1093 41.8117C59.3457 41.778 59.5859 41.7686 59.8422 41.7467Z" fill="#F4F0E1" fill-opacity="0.7"></path><path d="M4.66061 44.8976C4.67519 44.6625 4.67749 44.4894 4.69745 44.3209C4.83787 43.1525 5.80167 42.5922 6.87674 43.0404C7.30032 43.2175 7.51672 43.5443 7.58195 43.9855C7.76381 45.2095 7.71623 45.2636 6.52683 45.2644C6.36108 45.2644 6.18996 45.2393 6.03035 45.2714C5.88915 45.2996 5.76024 45.3905 5.62595 45.4532C5.74105 45.61 5.83697 45.867 5.97586 45.8944C6.30125 45.9467 6.63286 45.9438 6.95731 45.8858C7.23049 45.845 7.40008 45.8693 7.46684 46.1757C7.5359 46.497 7.32949 46.5675 7.10542 46.602C6.71713 46.6561 6.32118 46.736 5.9352 46.7094C5.23613 46.6608 4.87547 46.3035 4.73658 45.606C4.69899 45.3714 4.67363 45.135 4.66061 44.8976ZM6.11246 44.5521C6.63119 44.5521 6.73018 44.4925 6.72097 44.2065C6.71915 44.0622 6.66176 43.9245 6.56122 43.8231C6.46068 43.7218 6.32509 43.665 6.18382 43.665C6.10734 43.6625 6.03118 43.676 5.96004 43.7048C5.88891 43.7336 5.82432 43.777 5.77029 43.8323C5.71625 43.8876 5.67393 43.9537 5.64593 44.0264C5.61794 44.0991 5.60487 44.177 5.60753 44.2551C5.6129 44.6618 5.93136 44.5137 6.11246 44.5521Z" fill="#F4F0E1" fill-opacity="0.7"></path><path d="M78.3224 45.2643C78.0799 45.2643 77.8367 45.2643 77.5942 45.2643C77.3372 45.2706 77.2558 45.4289 77.4047 45.6185C77.519 45.7651 77.7116 45.9132 77.885 45.932C78.1835 45.9649 78.4935 45.9085 78.7959 45.8693C79.0261 45.8387 79.165 45.91 79.2095 46.1529C79.2517 46.3825 79.1857 46.5142 78.947 46.5839C78.3953 46.7407 77.8528 46.8018 77.2896 46.6223C76.912 46.5024 76.6412 46.2627 76.5514 45.8951C76.3734 45.1672 76.3304 44.4188 76.5936 43.701C76.8115 43.107 77.4154 42.839 78.1881 42.9174C78.8128 42.9848 79.1734 43.3202 79.3108 43.9612C79.3108 43.9737 79.3169 43.987 79.3192 43.9996C79.5371 45.1444 79.445 45.2643 78.3224 45.2643ZM77.8497 44.5544C78.1183 44.5387 78.4414 44.6382 78.4414 44.201C78.4451 44.1294 78.4341 44.0579 78.409 43.991C78.3839 43.9241 78.3454 43.8633 78.2958 43.8126C78.2462 43.7619 78.1868 43.7224 78.1213 43.6967C78.0558 43.671 77.9858 43.6597 77.9157 43.6634C77.7622 43.6678 77.6162 43.7322 77.5078 43.8433C77.3995 43.9544 77.337 44.1037 77.3333 44.2605C77.3364 44.6821 77.6587 44.5113 77.8497 44.5544Z" fill="#F4F0E1" fill-opacity="0.7"></path><path d="M39.5578 45.2643C39.3789 45.2512 39.1992 45.2536 39.0206 45.2714C38.8795 45.2964 38.7482 45.3858 38.6132 45.4461C38.7313 45.6028 38.8319 45.8685 38.9708 45.8912C39.3145 45.9476 39.6775 45.9077 40.0305 45.8787C40.3551 45.8512 40.5055 45.957 40.474 46.2705C40.4645 46.3294 40.4419 46.3853 40.408 46.4339C40.3741 46.4825 40.3297 46.5226 40.2784 46.551C39.7274 46.7501 39.168 46.8088 38.5902 46.6294C38.1666 46.5001 37.8489 46.229 37.8059 45.8113C37.7407 45.1719 37.6877 44.4995 37.8136 43.8805C37.9755 43.0796 38.8948 42.705 39.7235 42.9715C40.1586 43.1109 40.4387 43.3797 40.5623 43.8452C40.87 45.0081 40.6958 45.2643 39.5578 45.2643ZM39.1296 44.5591C39.3729 44.5269 39.689 44.6507 39.7189 44.2456C39.7245 44.1711 39.7148 44.0962 39.6904 44.0256C39.6661 43.9551 39.6277 43.8906 39.5776 43.836C39.5275 43.7815 39.4669 43.7382 39.3995 43.7089C39.3322 43.6796 39.2596 43.6649 39.1864 43.6657C39.0332 43.6736 38.8885 43.7398 38.7808 43.8512C38.673 43.9625 38.6099 44.1111 38.604 44.2676C38.6063 44.6868 38.9362 44.5026 39.1296 44.5591Z" fill="#F4F0E1" fill-opacity="0.7"></path><path d="M63.7296 45.2644C63.5384 45.2531 63.3466 45.2552 63.1556 45.2706C63.0229 45.2902 62.8986 45.3725 62.7719 45.4273C62.8679 45.5841 62.9316 45.7886 63.0681 45.8787C63.2047 45.9688 63.4112 45.9618 63.5869 45.9571C63.7902 45.9475 63.9921 45.9183 64.19 45.8701C64.4556 45.8121 64.5737 45.9539 64.6274 46.1835C64.6812 46.4131 64.5776 46.5111 64.3696 46.5754C63.7803 46.7626 63.1955 46.8104 62.6047 46.5848C62.2409 46.4437 61.9823 46.1804 61.9363 45.7972C61.8741 45.2839 61.8281 44.7542 61.881 44.2433C61.99 43.1901 62.7942 42.676 63.8048 42.9589C64.3627 43.1156 64.6336 43.4291 64.7118 44.027C64.7157 44.0529 64.7195 44.0787 64.7226 44.1054C64.8592 45.2643 64.8592 45.2644 63.7296 45.2644ZM63.2546 44.552C63.781 44.552 63.8539 44.505 63.847 44.1939C63.8401 43.8656 63.6337 43.6603 63.3137 43.6642C63.2402 43.6639 63.1673 43.6786 63.0995 43.7074C63.0316 43.7363 62.97 43.7787 62.9185 43.8323C62.8669 43.8858 62.8264 43.9493 62.7992 44.0191C62.7721 44.0889 62.7589 44.1635 62.7604 44.2386C62.752 44.6539 63.0589 44.527 63.2516 44.552H63.2546Z" fill="#F4F0E1" fill-opacity="0.7"></path><path d="M31.4146 44.7863C31.4146 44.6954 31.4107 44.6037 31.4146 44.5128C31.4752 43.1854 32.5986 42.4997 33.7681 43.1023C34.0126 43.2392 34.207 43.4534 34.3221 43.7128C34.5664 44.3088 34.6056 44.9717 34.4334 45.5934C34.2239 46.41 33.7351 46.7626 32.8856 46.7336C32.0807 46.707 31.6064 46.301 31.4537 45.4861C31.4213 45.2541 31.4008 45.0205 31.3923 44.7863H31.4146ZM33.6108 44.7973C33.5831 44.5622 33.5609 44.342 33.534 44.1241C33.4903 43.8107 33.2823 43.6814 33.0007 43.6697C32.7191 43.6579 32.4367 43.7606 32.4091 44.0912C32.3705 44.5662 32.3671 45.0435 32.3991 45.519C32.4221 45.8638 32.683 45.9892 33.0015 45.9751C33.3199 45.9609 33.5018 45.8034 33.5386 45.4806C33.5655 45.2486 33.5877 45.0159 33.6108 44.7973Z" fill="#F4F0E1" fill-opacity="0.7"></path><path d="M12.0042 44.7871C12.015 44.5943 12.0119 44.3835 12.0418 44.1782C12.1408 43.4981 12.5168 43.089 13.1545 42.9479C13.8451 42.7959 14.5833 43.02 14.8427 43.5623C15.2394 44.4008 15.2463 45.2863 14.8235 46.1208C14.5672 46.627 13.7991 46.8535 13.1553 46.6991C12.4923 46.5424 12.1224 46.1255 12.0388 45.4273C12.0096 45.2212 12.0142 45.0081 12.0042 44.7871ZM14.1851 44.8043C14.169 44.5889 14.1582 44.3812 14.1375 44.1775C14.1045 43.8515 13.9012 43.6947 13.6003 43.6728C13.2995 43.6509 13.0302 43.7621 12.9995 44.0842C12.9535 44.5709 12.9504 45.0608 12.9903 45.548C13.0195 45.8873 13.2972 46.0033 13.6134 45.9766C13.9295 45.95 14.1083 45.7847 14.1375 45.4618C14.1582 45.2385 14.1705 45.0183 14.1851 44.8043Z" fill="#F4F0E1" fill-opacity="0.7"></path><path d="M52.0742 44.8514C52.0627 45.0496 52.0604 45.2714 52.0351 45.4916C51.9583 46.1632 51.5616 46.58 50.8794 46.7156C50.1972 46.8512 49.4314 46.5722 49.2012 46.0103C49.0447 45.6374 48.964 45.2359 48.964 44.8302C48.964 44.4245 49.0447 44.023 49.2012 43.6501C49.4421 43.0647 50.1934 42.7975 50.9163 42.9511C51.5877 43.0929 51.9714 43.5184 52.0381 44.2049C52.0604 44.4063 52.0658 44.6163 52.0742 44.8514ZM49.9033 44.82C49.9141 45.0151 49.9187 45.2236 49.9386 45.4305C49.9709 45.7627 50.1558 45.9484 50.4812 45.979C50.8065 46.0096 51.0728 45.8646 51.1073 45.5441C51.1591 45.0691 51.1591 44.5897 51.1073 44.1148C51.0728 43.7943 50.8004 43.6446 50.4804 43.6751C50.1604 43.7057 49.9701 43.8938 49.9356 44.2237C49.9171 44.4125 49.9171 44.6084 49.9033 44.8161V44.82Z" fill="#F4F0E1" fill-opacity="0.7"></path><path d="M55.8135 45.2087C55.8135 45.5347 55.7989 45.8615 55.8181 46.1867C55.8388 46.5487 55.6754 46.6733 55.3408 46.6749C54.9894 46.6749 54.9134 46.4813 54.918 46.1733C54.928 45.5605 54.9326 44.947 54.918 44.335C54.9057 43.8648 54.6686 43.654 54.2435 43.6791C53.8997 43.6987 53.6964 43.8538 53.7002 44.2362C53.7063 44.8882 53.6879 45.541 53.7056 46.1953C53.7156 46.5675 53.5352 46.6741 53.2145 46.6756C52.8937 46.6772 52.7917 46.5134 52.7947 46.2102C52.8016 45.2972 52.7947 44.3843 52.7947 43.4675C52.7947 42.9887 52.9597 42.8962 53.3902 43.0671C53.5392 43.1176 53.7009 43.1129 53.8468 43.0537C54.9349 42.5922 55.7882 43.1478 55.8089 44.3467C55.8143 44.6335 55.8089 44.9211 55.8089 45.2087H55.8135Z" fill="#F4F0E1" fill-opacity="0.7"></path><path d="M17.088 42.8978C17.2591 42.9268 17.5131 42.9574 17.7602 43.0161C17.9543 43.0624 18.1285 43.1478 18.0618 43.4189C18.0004 43.6712 17.8799 43.806 17.6013 43.7535C17.3904 43.7023 17.173 43.6846 16.9568 43.701C16.8202 43.7198 16.6989 43.8577 16.5731 43.9478C16.6751 44.081 16.7511 44.2707 16.8846 44.3334C17.1348 44.4517 17.4218 44.4815 17.6881 44.5739C18.1063 44.7205 18.272 45.0621 18.2758 45.4868C18.2805 45.9257 18.1684 46.33 17.751 46.5416C17.1095 46.866 16.4534 46.7767 15.8218 46.5102C15.729 46.4718 15.663 46.1968 15.6991 46.0605C15.7267 45.957 15.9339 45.8395 16.0605 45.841C16.3751 45.841 16.6905 45.9445 17.0028 45.9335C17.1317 45.9288 17.3412 45.7478 17.3535 45.6295C17.3658 45.5111 17.2062 45.3262 17.0772 45.2455C16.9238 45.1468 16.7174 45.1201 16.5309 45.0731C15.9262 44.9219 15.65 44.5685 15.6722 43.9627C15.6945 43.357 16.0122 43.0224 16.6253 42.9331C16.748 42.9143 16.8762 42.9135 17.088 42.8978Z" fill="#F4F0E1" fill-opacity="0.7"></path><path d="M69.4848 45.5159C69.6229 45.0794 69.7664 44.6445 69.8984 44.2064C69.9805 43.933 70.0435 43.6579 70.1179 43.3782C70.2115 43.0334 70.4855 42.8798 70.8162 42.9864C71.0809 43.0718 71.0311 43.2841 70.9758 43.4691C70.7456 44.2394 70.5031 45.0057 70.2629 45.7729C70.2276 45.8842 70.1754 45.99 70.1432 46.102C70.045 46.4405 69.8885 46.6615 69.484 46.6787C69.0428 46.6976 68.8264 46.4938 68.7029 46.1028C68.4305 45.2408 68.1504 44.3734 67.8802 43.5067C67.8196 43.3108 67.7321 43.0584 68.0253 42.9965C68.277 42.9425 68.5839 42.8931 68.6944 43.2575C68.8932 43.9165 69.0781 44.5779 69.2753 45.2377C69.3029 45.3294 69.3428 45.4171 69.3774 45.5065L69.4848 45.5159Z" fill="#F4F0E1" fill-opacity="0.7"></path><path d="M35.4141 44.8584C35.4141 44.6758 35.4041 44.4933 35.4141 44.3099C35.4348 44.0043 35.4409 43.7324 35.0189 43.723C34.9529 43.723 34.8347 43.5317 34.8424 43.4377C34.8516 43.3233 34.9559 43.1376 35.0411 43.1243C35.3872 43.0663 35.4386 42.8469 35.4095 42.5585C35.3742 42.2027 35.4977 42.035 35.8775 42.0335C36.2574 42.0319 36.338 42.2396 36.3119 42.553C36.2858 42.8665 36.4239 42.9934 36.7147 42.9754C37.0056 42.9574 37.1897 43.0412 37.1982 43.3742C37.2074 43.7292 36.9887 43.7802 36.7178 43.759C36.4017 43.7339 36.2858 43.8718 36.3057 44.1963C36.3295 44.5881 36.3111 44.9799 36.3134 45.3678C36.3134 45.7071 36.4469 45.9163 36.8176 45.8928C37.0792 45.8756 37.3018 45.8975 37.2941 46.2705C37.2857 46.6208 37.0885 46.678 36.8153 46.667C36.6879 46.6615 36.5597 46.667 36.4316 46.6545C35.7172 46.5965 35.4286 46.2885 35.411 45.5574C35.4141 45.327 35.4141 45.0927 35.4141 44.8584Z" fill="#F4F0E1" fill-opacity="0.7"></path><path d="M20.9616 44.8326C20.9616 44.6367 20.9501 44.4408 20.9616 44.2456C20.9816 43.9674 20.9555 43.7551 20.6025 43.7402C20.5258 43.7402 20.3984 43.5639 20.4045 43.4769C20.4137 43.3492 20.5043 43.1399 20.591 43.1219C20.9325 43.0498 20.9747 42.8281 20.9593 42.5428C20.9378 42.2129 21.0437 42.0303 21.4128 42.0358C21.7674 42.0413 21.9039 42.1925 21.8694 42.5389C21.8372 42.8523 21.963 43.0036 22.2853 42.9777C22.5677 42.955 22.7503 43.0506 22.7503 43.3907C22.7503 43.7308 22.5547 43.7825 22.2976 43.7574C21.963 43.7253 21.8372 43.864 21.8625 44.2088C21.8886 44.6116 21.8725 45.0175 21.874 45.4219C21.874 45.7353 22.0075 45.9155 22.3344 45.892C22.6015 45.8732 22.8179 45.8975 22.8087 46.2697C22.7995 46.642 22.5785 46.6874 22.2953 46.6663C22.1679 46.6568 22.0398 46.6623 21.9116 46.6506C21.2732 46.5887 21.0291 46.3489 20.9724 45.6914C20.9478 45.407 20.9724 45.1186 20.9724 44.8294L20.9616 44.8326Z" fill="#F4F0E1" fill-opacity="0.7"></path><path d="M46.1655 46.6662C45.1979 46.6482 44.9116 46.3528 44.907 45.3717C44.907 44.9681 44.8978 44.5638 44.9116 44.161C44.9201 43.9157 44.8733 43.7692 44.5924 43.7418C44.4988 43.7324 44.3622 43.5756 44.3492 43.473C44.3361 43.3703 44.4351 43.1478 44.508 43.1368C44.9247 43.0733 44.9278 42.7857 44.907 42.4707C44.8863 42.1557 45.0505 42.046 45.3483 42.0366C45.6759 42.0272 45.8371 42.1612 45.8087 42.4911C45.7795 42.8437 45.9123 43.0052 46.2691 42.9777C46.5545 42.9566 46.6919 43.1062 46.6934 43.3985C46.6949 43.6908 46.5161 43.7817 46.2668 43.7574C45.8831 43.7206 45.7772 43.8985 45.8064 44.2668C45.8355 44.6351 45.8064 45.0214 45.8171 45.3991C45.8248 45.6914 45.9284 45.9069 46.2706 45.8936C46.5292 45.8834 46.7893 45.8474 46.7847 46.2642C46.7801 46.6811 46.5246 46.6764 46.243 46.667C46.2169 46.6655 46.1908 46.6662 46.1655 46.6662Z" fill="#F4F0E1" fill-opacity="0.7"></path><path d="M42.1031 44.8365V44.9149C42.1108 45.8873 42.351 46.0903 43.2956 45.8975C43.5473 45.8466 43.8166 45.7784 43.8266 46.1569C43.8305 46.294 43.7054 46.5275 43.5964 46.5581C43.245 46.6675 42.8795 46.723 42.5121 46.7227C41.7333 46.6984 41.3112 46.2979 41.2322 45.508C41.1839 45.0431 41.1883 44.574 41.2452 44.1101C41.3404 43.3609 41.7501 42.9636 42.4899 42.9346C42.8851 42.9197 43.2925 43.0326 43.68 43.1407C43.9348 43.2113 43.9686 43.4267 43.8519 43.6767C43.7422 43.9118 43.611 43.9902 43.3716 43.857C43.2593 43.7964 43.1379 43.7553 43.0124 43.7355C42.3863 43.6211 42.1254 43.8389 42.1062 44.4831C42.1024 44.5998 42.1062 44.7182 42.1062 44.8341L42.1031 44.8365Z" fill="#F4F0E1" fill-opacity="0.7"></path><path d="M73.1957 44.8318C73.1957 44.7275 73.1919 44.6233 73.1957 44.5183C73.2571 43.1282 74.5678 42.4284 75.7418 43.1548C75.9682 43.2951 75.9613 43.4683 75.8554 43.6869C75.7495 43.9055 75.6336 43.9862 75.4026 43.8726C75.2549 43.7982 75.0967 43.7477 74.9338 43.7229C74.389 43.6446 74.1357 43.8663 74.1181 44.4196C74.1089 44.7064 74.1081 44.994 74.1258 45.2816C74.1572 45.7784 74.3744 45.979 74.8663 45.961C75.057 45.9477 75.2462 45.9175 75.4318 45.8708C75.6367 45.8254 75.7871 45.863 75.8408 46.0942C75.8945 46.3253 75.8569 46.5103 75.5976 46.5784C75.4275 46.633 75.2546 46.6778 75.0796 46.7124C73.8342 46.8895 73.2134 46.3457 73.1911 45.0668C73.1911 44.9885 73.1911 44.9101 73.1911 44.8318H73.1957Z" fill="#F4F0E1" fill-opacity="0.7"></path><path d="M29.8983 43.2261C30.0978 43.1634 30.3787 43.0537 30.6656 42.9911C30.9005 42.9401 31.0217 43.0945 31.0332 43.3264C31.0447 43.5584 31.0163 43.7316 30.7263 43.7637C30.0786 43.8334 29.9466 43.9925 29.942 44.6515C29.9382 45.1593 29.9297 45.6702 29.9466 46.1741C29.9574 46.5126 29.8561 46.6772 29.4931 46.6748C29.1302 46.6725 29.0503 46.4844 29.055 46.1577C29.0672 45.2863 29.0488 44.4141 29.0672 43.5427C29.0711 43.3594 29.1578 43.0435 29.2499 43.0255C29.4287 42.9918 29.6312 43.1321 29.8983 43.2261Z" fill="#F4F0E1" fill-opacity="0.7"></path><path d="M66.3071 43.2238C66.5067 43.158 66.7637 43.053 67.03 42.9887C67.2709 42.9331 67.4236 43.0467 67.4336 43.3186C67.4428 43.5607 67.4236 43.7465 67.1044 43.7637C66.5105 43.795 66.3616 43.9745 66.3563 44.5975C66.3517 45.146 66.347 45.6945 66.3563 46.2383C66.3639 46.5714 66.1974 46.6646 65.9074 46.6701C65.6173 46.6756 65.4538 46.5659 65.4562 46.2415C65.4638 45.3552 65.4492 44.4697 65.4692 43.5842C65.4738 43.3868 65.5843 43.1924 65.6465 42.995L66.3071 43.2238Z" fill="#F4F0E1" fill-opacity="0.7"></path><path d="M19.8758 44.8075C19.8758 45.2777 19.8697 45.7478 19.8758 46.218C19.882 46.5236 19.7661 46.6788 19.4507 46.6756C19.1514 46.6756 18.9665 46.5926 18.9719 46.2321C18.9841 45.2918 18.9818 44.3561 18.9719 43.4181C18.9719 43.0882 19.1253 42.9903 19.4185 42.9816C19.7116 42.973 19.8789 43.0804 19.8751 43.404C19.872 43.8695 19.8758 44.3389 19.8758 44.8075Z" fill="#F4F0E1" fill-opacity="0.7"></path><path d="M47.3749 44.8004C47.3749 44.3303 47.3818 43.8601 47.3749 43.3899C47.368 43.0545 47.5399 42.973 47.8353 42.9754C48.1307 42.9777 48.2681 43.0678 48.2665 43.3782C48.2614 44.3425 48.2614 45.3074 48.2665 46.2729C48.2665 46.591 48.1008 46.6647 47.8276 46.6694C47.5306 46.6741 47.3672 46.5769 47.3741 46.2462C47.3841 45.7635 47.3741 45.2808 47.3741 44.7981L47.3749 44.8004Z" fill="#F4F0E1" fill-opacity="0.7"></path><path d="M72.4637 44.8404C72.4637 45.2965 72.4514 45.7533 72.4683 46.2086C72.4806 46.5503 72.3363 46.6741 72.014 46.6741C71.7071 46.6741 71.5682 46.555 71.5697 46.2352C71.5769 45.2949 71.5769 44.3564 71.5697 43.4197C71.5697 43.1062 71.6948 42.9762 72.0079 42.9777C72.321 42.9793 72.4821 43.0843 72.4683 43.433C72.4522 43.9032 72.4683 44.3734 72.4683 44.8435L72.4637 44.8404Z" fill="#F4F0E1" fill-opacity="0.7"></path><path d="M71.9895 42.6313C71.9195 42.6316 71.8501 42.6175 71.7856 42.5898C71.721 42.5622 71.6626 42.5215 71.6137 42.4704C71.5648 42.4192 71.5265 42.3585 71.501 42.292C71.4755 42.2254 71.4634 42.1543 71.4653 42.0828C71.4653 41.7482 71.684 41.5414 72.0301 41.5445C72.3762 41.5476 72.5542 41.738 72.5504 42.0734C72.5517 42.1483 72.538 42.2227 72.5101 42.292C72.4822 42.3613 72.4407 42.424 72.3881 42.4763C72.3356 42.5286 72.2731 42.5693 72.2045 42.596C72.1359 42.6226 72.0628 42.6347 71.9895 42.6313Z" fill="#F4F0E1" fill-opacity="0.7"></path><path d="M19.9856 42.0554C19.9872 42.2059 19.9304 42.351 19.8275 42.4588C19.7247 42.5666 19.5842 42.6284 19.4369 42.6306C19.1177 42.6416 18.9181 42.4418 18.9097 42.1048C18.9013 41.7435 19.0555 41.5664 19.3947 41.55C19.7339 41.5335 19.9763 41.7318 19.9856 42.0554Z" fill="#F4F0E1" fill-opacity="0.7"></path><path d="M48.3533 42.0789C48.3524 42.1541 48.3368 42.2283 48.3073 42.2971C48.2778 42.366 48.235 42.428 48.1815 42.4796C48.128 42.5313 48.0649 42.5714 47.996 42.5976C47.927 42.6238 47.8536 42.6355 47.7801 42.6322C47.7097 42.6299 47.6405 42.6132 47.5766 42.5829C47.5127 42.5526 47.4555 42.5095 47.4084 42.456C47.3613 42.4026 47.3253 42.34 47.3025 42.2719C47.2797 42.2039 47.2707 42.1318 47.2759 42.0601C47.2882 41.7373 47.4946 41.5453 47.8276 41.5476C48.1607 41.55 48.361 41.7529 48.3533 42.0789Z" fill="#F4F0E1" fill-opacity="0.7"></path></svg> 