<?xml version="1.0" encoding="UTF-8"?> <svg xmlns="http://www.w3.org/2000/svg" width="109" height="48" viewBox="0 0 109 48" fill="none"><path d="M109 27.7925C107.9 27.8013 106.8 27.8153 105.7 27.8188C104.221 27.8188 102.741 27.8065 101.268 27.8293C100.914 27.8345 100.768 27.712 100.644 27.3915C100.101 25.9993 99.5274 24.6194 98.967 23.2343C98.8896 23.0416 98.8296 22.884 98.5546 22.884C95.1369 22.8945 91.7192 22.891 88.2563 22.891C87.8392 23.933 87.4219 24.9772 87.0042 26.0238C86.805 26.5221 86.6223 27.0281 86.3952 27.5123C86.3343 27.6437 86.1411 27.7986 86.0071 27.7995C83.5161 27.8162 81.025 27.8118 78.5331 27.81C78.447 27.8021 78.3616 27.7886 78.2773 27.7697L78.9942 26.0676C82.6196 17.445 86.2452 8.82171 89.8712 0.19788C89.899 0.131336 89.9303 0.0656682 89.9582 0H97.3487C97.3896 0.122581 97.4244 0.248663 97.474 0.366866C100.644 7.90732 103.815 15.4472 106.987 22.9865C107.65 24.5625 108.327 26.1324 108.998 27.705L109 27.7925ZM93.5777 9.15414C92.5336 11.7905 91.5278 14.3472 90.5133 16.9196H96.6039C95.5937 14.3235 94.5992 11.7747 93.5777 9.15414Z" fill="#F4F0E1" fill-opacity="0.7"></path><path d="M33.0485 0.180369H33.5296C37.7165 0.180369 41.9042 0.173364 46.0919 0.180369C48.1871 0.185622 50.2509 0.408894 52.1904 1.29235C55.3227 2.71779 57.0794 5.12299 57.3726 8.59552C57.4905 9.814 57.4102 11.0437 57.1351 12.2362C56.486 14.9172 54.7493 16.6911 52.3713 17.9134C52.1921 18.0053 52.0094 18.0885 51.7858 18.2023L58.3114 27.7881C58.113 27.8004 57.9886 27.8153 57.8651 27.8153C55.2139 27.8153 52.5575 27.8153 49.9107 27.8223C49.6175 27.8223 49.4418 27.7347 49.279 27.4861C47.598 24.9233 45.9014 22.3709 44.2195 19.8081C44.0594 19.5656 43.8932 19.4579 43.593 19.4632C42.6359 19.4842 41.6789 19.471 40.6748 19.471V27.789H33.0485V0.180369ZM40.6791 13.4261C42.535 13.4261 44.3431 13.4331 46.1502 13.4199C46.4824 13.4069 46.8126 13.3615 47.136 13.2842C48.6091 12.9795 49.6401 11.8833 49.715 10.5533C49.8202 8.68483 49.1703 7.62188 47.585 7.11755C47.2298 6.99487 46.8594 6.92267 46.4843 6.90304C44.6032 6.86188 42.7221 6.85138 40.841 6.83211C40.7853 6.84007 40.7308 6.85538 40.6791 6.87764V13.4261Z" fill="#F4F0E1" fill-opacity="0.7"></path><path d="M0.00435043 0.175115H2.12127C4.96036 0.175115 7.79945 0.168986 10.6385 0.186498C10.888 0.195076 11.1264 0.292506 11.3111 0.461428C13.3558 2.50327 15.3805 4.56613 17.4191 6.6141C17.5192 6.70426 17.5984 6.81547 17.651 6.93985C17.7036 7.06422 17.7284 7.19872 17.7236 7.33382C17.7115 10.0131 17.7167 12.6932 17.7167 15.3725V15.8751L6.4717 4.67995V5.29898C6.4717 12.624 6.4717 19.9497 6.4717 27.2759C6.4717 27.8626 6.4717 27.8626 5.88613 27.8626H0.00435043V0.175115Z" fill="#F4F0E1" fill-opacity="0.7"></path><path d="M20.9143 23.2903C20.9247 23.0951 20.9456 22.8998 20.9456 22.7045C20.9456 15.4227 20.9456 8.14022 20.9456 0.857188C20.9456 0.218018 20.9456 0.218018 21.5868 0.218018C23.3392 0.218018 25.0924 0.228525 26.8456 0.209263C27.2319 0.209263 27.3337 0.32659 27.3337 0.707465C27.3239 9.56303 27.3239 18.4183 27.3337 27.2733C27.3337 27.6883 27.205 27.7873 26.8117 27.7864C23.4506 27.7733 20.0894 27.7864 16.7283 27.7671C16.4773 27.7592 16.2372 27.6621 16.0505 27.4931C14.0153 25.4609 12.0011 23.4076 9.97205 21.364C9.86796 21.2676 9.78596 21.1495 9.73172 21.0179C9.67749 20.8864 9.65231 20.7446 9.65795 20.6023C9.66926 17.8644 9.66491 15.1273 9.66491 12.2651L20.802 23.3428L20.9143 23.2903Z" fill="#F4F0E1" fill-opacity="0.7"></path><path d="M61.2654 27.7978V0.215392H68.8647V21.062H78.3947C78.3373 21.2371 78.3077 21.3535 78.2599 21.4647C77.4246 23.4587 76.5884 25.4521 75.7514 27.4449C75.6566 27.6743 75.5661 27.8275 75.265 27.8267C70.6878 27.8162 66.1097 27.8132 61.5307 27.8179C61.4603 27.8179 61.3889 27.8074 61.2654 27.7978Z" fill="#F4F0E1" fill-opacity="0.7"></path><path d="M93.5803 42.5976C94.2851 42.4426 94.7315 42.6335 95.0769 43.2867C95.5685 44.2183 96.1819 45.0851 96.8232 45.966V42.5871H97.7628V47.894C97.5471 47.894 97.333 47.8773 97.1225 47.894C96.8736 47.9194 96.7335 47.816 96.6056 47.6077C95.96 46.557 95.3005 45.5159 94.567 44.4792V47.8581H93.5803V42.5976Z" fill="#F4F0E1" fill-opacity="0.7"></path><path d="M3.24716 36.9221V33.5949H4.18511V38.8484C3.33504 39.0235 3.24368 38.9824 2.81038 38.2924C2.28485 37.4565 1.75931 36.6204 1.23378 35.7839C1.16156 35.6683 1.08065 35.5571 0.937952 35.3461V38.8755H0V33.6414C0.805699 33.4461 0.951874 33.5048 1.37387 34.1755C1.95392 35.1036 2.53746 36.0314 3.12448 36.9589L3.24716 36.9221Z" fill="#F4F0E1" fill-opacity="0.7"></path><path d="M71.7821 36.9607V33.5993H72.7061V38.8615C71.8056 39.0139 71.7708 38.9999 71.3253 38.2907C70.7319 37.3459 70.1376 36.4003 69.4677 35.4652V38.8799H68.5106V33.6422C69.3223 33.4452 69.472 33.503 69.8914 34.1676L71.6698 36.9966L71.7821 36.9607Z" fill="#F4F0E1" fill-opacity="0.7"></path><path d="M10.528 47.8712H9.57094V42.5661C9.86242 42.5661 10.1504 42.5381 10.4288 42.5792C10.5541 42.5976 10.6899 42.7342 10.7691 42.8533C11.3651 43.7814 11.948 44.7191 12.5362 45.6551C12.6093 45.7707 12.6919 45.8793 12.8329 46.0807V42.5967H13.7735V47.8274C13.0052 48.0297 12.8268 47.9605 12.4126 47.3021C11.8132 46.3451 11.2128 45.3872 10.5306 44.446L10.528 47.8712Z" fill="#F4F0E1" fill-opacity="0.7"></path><path d="M22.9233 33.63C23.8308 33.4706 23.8673 33.4873 24.3154 34.2008C24.8992 35.1298 25.4839 36.0571 26.1487 36.9659V33.609H27.1058V38.8414C26.3497 39.0463 26.1583 38.9754 25.765 38.3502L23.8926 35.361V38.8755H22.9233V33.63Z" fill="#F4F0E1" fill-opacity="0.7"></path><path d="M57.9964 38.8878V33.5345C58.9231 33.5836 59.8402 33.5485 60.7224 33.7053C61.5925 33.8585 62.0188 34.573 62.0972 35.41C62.161 36.0739 62.1378 36.7433 62.0284 37.4011C61.8744 38.3064 61.1679 38.8607 60.2534 38.8974C59.6035 38.9237 58.9483 38.9088 58.301 38.9106C58.2148 38.9097 58.1287 38.8974 57.9964 38.8878ZM59.0092 34.5169V38.0192C59.3573 38.0192 59.6783 38.0236 59.995 38.0192C60.591 38.0096 61.0182 37.697 61.0809 37.1086C61.1405 36.5323 61.1405 35.9513 61.0809 35.375C61.0356 34.932 60.7555 34.5765 60.2787 34.5231C59.8619 34.4802 59.4443 34.5169 59.0092 34.5169Z" fill="#F4F0E1" fill-opacity="0.7"></path><path d="M15.3944 42.5748C16.1975 42.5748 16.9658 42.5337 17.7271 42.5845C18.7121 42.651 19.3803 43.32 19.4995 44.4153C19.5657 45.0654 19.542 45.7216 19.429 46.3652C19.2681 47.3003 18.5215 47.8703 17.5757 47.8887C16.8953 47.9019 16.2149 47.8887 15.5345 47.8887C15.4866 47.8815 15.4396 47.8689 15.3944 47.8511V42.5748ZM16.4133 43.439V47.0184C17.1172 46.9536 17.9359 47.2732 18.3197 46.4747C18.7216 45.6376 18.7477 44.692 18.257 43.8838C17.8368 43.1983 17.0659 43.51 16.4133 43.439Z" fill="#F4F0E1" fill-opacity="0.7"></path><path d="M40.0857 33.63C40.9837 33.63 41.8407 33.5739 42.6864 33.6457C43.5008 33.7149 43.9585 34.2035 44.109 34.9512C44.2456 35.6324 43.9463 36.2777 43.3033 36.6892C43.2676 36.712 43.2346 36.7374 43.1832 36.7768C43.4878 37.4659 43.7923 38.1532 44.129 38.9211C43.7862 38.9211 43.5034 38.9456 43.2285 38.9079C43.1223 38.8939 42.9988 38.7556 42.9457 38.6453C42.7393 38.2295 42.5549 37.8031 42.3932 37.3678C42.267 37.0114 42.073 36.8512 41.6902 36.909C41.4756 36.9259 41.2602 36.9276 41.0454 36.9143V38.8913H40.0883L40.0857 33.63ZM41.0428 36.0115C41.5301 36.0115 41.9747 36.0273 42.4184 36.0072C42.8021 35.9896 43.0762 35.8093 43.1215 35.3864C43.1719 34.9276 42.977 34.5703 42.542 34.5187C42.053 34.46 41.5518 34.5047 41.0428 34.5047V36.0115Z" fill="#F4F0E1" fill-opacity="0.7"></path><path d="M33.621 45.7418C33.9386 46.4624 34.2422 47.1489 34.5711 47.8931C34.2509 47.8931 33.9916 47.9185 33.7411 47.8817C33.6713 47.8682 33.6051 47.8401 33.5468 47.7993C33.4885 47.7584 33.4393 47.7056 33.4026 47.6444C33.1759 47.191 32.9726 46.726 32.7935 46.2514C32.6856 45.9607 32.5325 45.8425 32.2228 45.8784C31.9811 45.8923 31.7388 45.8929 31.4971 45.8801V47.8563H30.5287V42.5959C31.4031 42.5959 32.2854 42.5354 33.1564 42.6134C33.9351 42.6825 34.4223 43.193 34.5424 43.9119C34.6773 44.7174 34.3684 45.332 33.621 45.7418ZM31.4841 44.9906C31.9809 44.9906 32.4411 45.0247 32.9023 44.9809C33.3634 44.9371 33.5757 44.6622 33.5679 44.2209C33.5601 43.812 33.3069 43.4881 32.884 43.4531C32.4272 43.4154 31.9661 43.4443 31.4841 43.4443V44.9906Z" fill="#F4F0E1" fill-opacity="0.7"></path><path d="M35.791 47.8861V42.6011C36.6289 42.6011 37.4555 42.5363 38.2664 42.6195C39.0773 42.7027 39.6124 43.2464 39.8134 44.0642C40.0199 44.8718 40.0088 45.7201 39.7812 46.5219C39.6819 46.8992 39.465 47.2345 39.1625 47.4788C38.86 47.723 38.4877 47.8633 38.1002 47.8791C37.3502 47.9141 36.5967 47.8861 35.791 47.8861ZM36.7698 47.0105C37.1501 47.0105 37.4816 47.0245 37.8139 47.0105C38.3847 46.9807 38.771 46.7084 38.838 46.1349C38.9054 45.5198 38.9054 44.8991 38.838 44.284C38.7893 43.8033 38.4282 43.5178 37.9505 43.4697C37.5694 43.432 37.1814 43.4618 36.7768 43.4618L36.7698 47.0105Z" fill="#F4F0E1" fill-opacity="0.7"></path><path d="M45 44.1159H44.0429C43.7392 43.397 43.0614 43.123 42.3897 43.4513C42.1061 43.5888 41.8781 43.826 41.9921 44.1369C42.0652 44.3374 42.3079 44.5326 42.5185 44.6114C42.7943 44.7165 43.1136 44.7095 43.4155 44.7428C44.4649 44.8584 45.0557 45.3776 45.0965 46.2251C45.1392 47.1156 44.5588 47.7845 43.5391 47.9483C42.8726 48.0551 42.2061 48.0174 41.6171 47.6208C41.1316 47.2942 40.8653 46.838 40.834 46.1752C41.0979 46.1625 41.3623 46.1663 41.6258 46.1866C41.6806 46.2047 41.7309 46.2346 41.7731 46.2742C41.8154 46.3138 41.8485 46.3622 41.8703 46.416C42.1539 47.1331 43.3163 47.3896 43.8758 46.8485C44.2473 46.4895 44.1368 45.9301 43.6322 45.7856C43.267 45.6962 42.8945 45.64 42.5194 45.6175C41.3421 45.5028 40.6652 44.5572 41.0715 43.5686C41.3282 42.9452 41.8476 42.6589 42.4706 42.5179C43.6174 42.2596 44.712 42.8349 44.9713 43.8392C44.9874 43.9306 44.9969 44.0231 45 44.1159Z" fill="#F4F0E1" fill-opacity="0.7"></path><path d="M57.0855 44.1159H56.1284C55.8343 43.4207 55.2357 43.1597 54.5544 43.4233C54.2438 43.5432 54.0323 43.7411 54.0541 44.1019C54.0758 44.4626 54.3412 44.5817 54.6405 44.6351C54.9242 44.685 55.213 44.7121 55.5002 44.7428C56.5443 44.8557 57.142 45.3811 57.1786 46.226C57.2177 47.1217 56.6435 47.7854 55.622 47.9483C54.9407 48.0568 54.2586 48.0166 53.6643 47.598C53.2023 47.2706 52.9404 46.8249 52.9264 46.1778C53.1875 46.1659 53.4489 46.1694 53.7095 46.1884C53.7643 46.2065 53.8144 46.2364 53.8565 46.276C53.8985 46.3156 53.9315 46.364 53.9532 46.4178C54.2377 47.1348 55.4001 47.3923 55.9543 46.8555C56.325 46.4974 56.2154 45.9397 55.7133 45.7891C55.3925 45.7036 55.064 45.6506 54.7327 45.6306C53.6782 45.5369 53.0909 45.0378 53.0422 44.1701C52.9961 43.3725 53.6599 42.6817 54.6362 42.5066C55.7673 42.3034 56.8053 42.8778 57.055 43.8488C57.0719 43.9369 57.0821 44.0262 57.0855 44.1159Z" fill="#F4F0E1" fill-opacity="0.7"></path><path d="M64.4446 38.0201H67.2046V38.8904H63.4728V33.6133H67.2011V34.4977H64.4551V35.6972H66.8913V36.5912H64.4446V38.0201Z" fill="#F4F0E1" fill-opacity="0.7"></path><path d="M87.8508 45.2121C87.8874 44.8934 87.9109 44.5738 87.9631 44.2595C88.1501 43.137 88.9993 42.4566 90.1757 42.4777C91.232 42.496 92.1125 43.2429 92.2013 44.3164C92.2613 45.0308 92.263 45.7777 92.1143 46.4738C91.8976 47.5148 90.9936 48.0498 89.8329 47.9789C89.3746 47.9439 88.9413 47.7549 88.6027 47.4422C88.264 47.1295 88.0397 46.7113 87.9657 46.2549C87.9091 45.9125 87.8891 45.5632 87.8508 45.2121ZM88.861 45.241C88.9071 45.5851 88.9193 45.9222 89.0011 46.2418C89.0574 46.4849 89.1934 46.7019 89.3873 46.8577C89.5811 47.0136 89.8214 47.0991 90.0695 47.1007C90.5864 47.1086 91.0971 46.7732 91.1606 46.2251C91.2356 45.552 91.2327 44.8724 91.1519 44.1999C91.0884 43.6807 90.5777 43.3585 90.0748 43.3629C89.8335 43.3608 89.5983 43.4393 89.4062 43.5862C89.2141 43.7331 89.0759 43.94 89.0133 44.1745C88.9228 44.5221 88.9088 44.889 88.861 45.241Z" fill="#F4F0E1" fill-opacity="0.7"></path><path d="M21.6486 36.2663C21.6138 36.5754 21.5929 36.8792 21.5433 37.1804C21.3519 38.3292 20.4992 39.0437 19.3681 39.0139C18.2231 38.9841 17.3843 38.253 17.2886 37.0876C17.2199 36.3967 17.2492 35.6995 17.3756 35.0169C17.581 34.0284 18.5119 33.4295 19.5247 33.4881C20.5514 33.5477 21.3519 34.2367 21.5259 35.2305C21.5903 35.5711 21.6103 35.9205 21.6486 36.2663ZM20.6376 36.2488C20.5932 35.9091 20.5819 35.5711 20.5001 35.2524C20.353 34.6824 19.9554 34.4005 19.3925 34.4101C18.8565 34.4189 18.4067 34.7104 18.3405 35.2577C18.2627 35.9158 18.2627 36.5809 18.3405 37.2391C18.4067 37.7951 18.8878 38.1103 19.4255 38.1094C19.6734 38.1196 19.9169 38.0416 20.1134 37.8892C20.3099 37.7368 20.4468 37.5197 20.5001 37.2759C20.581 36.9431 20.5932 36.5912 20.6376 36.2488Z" fill="#F4F0E1" fill-opacity="0.7"></path><path d="M62.2172 44.1202H61.2114C60.8573 43.3909 60.263 43.1466 59.5817 43.4364C59.2859 43.5616 59.1032 43.777 59.1223 44.1036C59.1415 44.4302 59.3738 44.579 59.6714 44.6289C59.9689 44.6789 60.2717 44.7165 60.5736 44.7463C61.609 44.8601 62.1963 45.3688 62.2329 46.1875C62.2755 47.134 61.7709 47.7548 60.7337 47.9386C60.0377 48.0638 59.3416 48.0209 58.7325 47.5884C58.267 47.2627 58.0199 46.8126 57.993 46.2024H58.9501C59.2494 47.0385 59.9646 47.3555 60.7772 47.0114C61.0861 46.8809 61.2775 46.6515 61.2584 46.3109C61.2392 45.9703 60.9974 45.8013 60.692 45.7392C60.4084 45.6841 60.122 45.6453 59.8341 45.6227C58.7813 45.5299 58.1809 45.0352 58.1426 44.2218C58.1052 43.3313 58.6821 42.6904 59.6975 42.496C60.605 42.3209 61.5386 42.6764 61.9405 43.3716C62.0563 43.5853 62.1093 43.8278 62.2172 44.1202Z" fill="#F4F0E1" fill-opacity="0.7"></path><path d="M54.1141 35.1605C53.8479 35.1605 53.6269 35.1911 53.418 35.15C53.2672 35.1207 53.1334 35.0337 53.0448 34.9074C52.7141 34.3182 51.7571 34.1343 51.2889 34.6273C51.1541 34.7682 51.0645 35.065 51.1149 35.2402C51.1654 35.4153 51.4142 35.5808 51.6083 35.6377C51.9093 35.7252 52.2373 35.7208 52.5541 35.7515C53.7374 35.8662 54.4247 36.7146 54.115 37.7653C54.0017 38.1059 53.7896 38.4045 53.5059 38.6225C52.7611 39.1864 51.3864 39.1478 50.6346 38.5901C50.4194 38.4427 50.2441 38.2437 50.1246 38.011C50.005 37.7784 49.945 37.5194 49.9499 37.2575H50.8887C51.2228 38.0551 51.6657 38.2933 52.5262 38.098C52.8864 38.0157 53.1709 37.8231 53.184 37.3976C53.197 36.972 52.9134 36.8153 52.5567 36.7558C52.1999 36.6962 51.8397 36.6612 51.4812 36.6166C50.7086 36.5194 50.1831 36.0474 50.07 35.3514C49.9629 34.6877 50.351 34.0319 51.0462 33.7175C51.3676 33.5633 51.719 33.4829 52.075 33.4822C52.431 33.4814 52.7828 33.5603 53.1048 33.7132C53.6921 33.982 54.0323 34.4399 54.1141 35.1605Z" fill="#F4F0E1" fill-opacity="0.7"></path><path d="M48.7448 35.6744V36.5824H46.3425V38.0087H49.0728V38.8843H45.355V33.602H49.0728V34.4977H46.3364V35.6779L48.7448 35.6744Z" fill="#F4F0E1" fill-opacity="0.7"></path><path d="M24.8122 45.1543C24.8178 44.8643 24.8404 44.5748 24.8801 44.2875C25.1081 43.0941 25.9477 42.4383 27.1632 42.4785C28.2073 42.5127 29.0469 43.2832 29.1592 44.4136C29.2256 45.0346 29.206 45.662 29.1009 46.2777C28.8868 47.4562 27.9941 48.0603 26.7534 47.9815C25.7545 47.9159 24.9427 47.0692 24.8505 45.9896C24.8279 45.7252 24.8262 45.4625 24.8122 45.1543ZM28.2395 45.2348C28.2064 44.9293 28.1925 44.6377 28.1394 44.3523C28.0281 43.7551 27.5426 43.3489 26.9892 43.3646C26.7176 43.3649 26.4558 43.4665 26.2543 43.6497C26.0528 43.8329 25.9259 44.0848 25.8981 44.3566C25.8372 44.9467 25.8372 45.5414 25.8981 46.1314C25.9318 46.4028 26.0642 46.652 26.2697 46.831C26.4752 47.01 26.7392 47.1061 27.0109 47.1007C27.2816 47.0979 27.5426 46.999 27.7479 46.8215C27.9532 46.6441 28.0897 46.3994 28.1334 46.1306C28.1908 45.832 28.2073 45.5299 28.2395 45.2348Z" fill="#F4F0E1" fill-opacity="0.7"></path><path d="M67.5683 45.2585C67.5343 45.5895 67.5308 45.9283 67.4612 46.2523C67.2002 47.4466 66.3301 48.07 65.0807 47.978C64.0505 47.9019 63.2326 47.0149 63.1917 45.8836C63.1717 45.3198 63.1569 44.7401 63.2622 44.192C63.4884 43.0135 64.3933 42.3875 65.6062 42.4812C66.6503 42.5617 67.4525 43.4277 67.5204 44.558C67.5352 44.7901 67.5204 45.023 67.5204 45.2585H67.5683ZM64.0966 45.2226C64.1688 45.6078 64.2045 46.0167 64.3254 46.3994C64.4742 46.8652 64.871 47.063 65.3339 47.0998C65.5608 47.1113 65.7853 47.0495 65.9749 46.9235C66.1644 46.7975 66.309 46.6139 66.3876 46.3994C66.6399 45.6495 66.6417 44.8371 66.3928 44.0861C66.2501 43.6431 65.8063 43.3646 65.3487 43.3664C64.891 43.3681 64.4542 43.6448 64.315 44.0913C64.2071 44.4451 64.1714 44.8242 64.0966 45.2226Z" fill="#F4F0E1" fill-opacity="0.7"></path><path d="M32.8588 38.9158C32.5508 38.9158 32.2697 38.9596 32.0157 38.8966C31.8895 38.8659 31.7547 38.6488 31.7233 38.4964C31.6363 38.0297 31.4031 37.8494 30.9246 37.9063C30.5362 37.9397 30.1457 37.9418 29.7569 37.9124C29.5151 37.9019 29.4046 37.9851 29.3219 38.2224C29.0609 39.0008 29.0461 38.9964 28.1394 38.8773C28.176 38.7407 28.203 38.6067 28.2473 38.478C28.7694 36.9738 29.3071 35.4739 29.8135 33.9636C29.9249 33.6308 30.0963 33.538 30.413 33.5748C30.7062 33.609 31.0125 33.4759 31.1621 33.9347C31.6633 35.4766 32.2193 36.9992 32.7526 38.5323C32.7883 38.6374 32.8127 38.7486 32.8588 38.9158ZM30.4704 34.8356C30.2094 35.6114 29.9919 36.2725 29.7578 36.9729H31.1891C30.9559 36.2795 30.7323 35.6131 30.4704 34.8356Z" fill="#F4F0E1" fill-opacity="0.7"></path><path d="M5.17092 38.9184C5.77998 37.1603 6.36294 35.4783 6.95982 33.8016C6.99193 33.7446 7.03636 33.6955 7.08982 33.6581C7.14328 33.6207 7.20441 33.5958 7.2687 33.5853C8.06831 33.5065 8.06744 33.5144 8.33194 34.27C8.81107 35.6377 9.29078 37.0047 9.77106 38.3712C9.82762 38.5323 9.86938 38.6987 9.93464 38.9176C9.63533 38.9176 9.36473 38.9675 9.1272 38.8992C8.98364 38.858 8.81919 38.6479 8.78961 38.4894C8.7026 38.0087 8.44766 37.8397 7.9813 37.9107C7.79362 37.9247 7.60516 37.9247 7.41748 37.9107C6.56567 37.9107 6.57263 37.9107 6.23155 38.6803C6.19996 38.7368 6.15678 38.786 6.10488 38.8245C6.05298 38.863 5.99354 38.8899 5.93051 38.9036C5.70689 38.943 5.47371 38.9184 5.17092 38.9184ZM7.59237 34.9784H7.4984C7.27827 35.6342 7.05901 36.2917 6.83191 36.9668H8.2606L7.59237 34.9784Z" fill="#F4F0E1" fill-opacity="0.7"></path><path d="M85.5851 38.9009C85.4468 38.9097 85.3763 38.9167 85.305 38.9184C84.5906 38.9342 84.5784 38.9377 84.3557 38.253C84.2756 38.0079 84.1738 37.8958 83.9015 37.9089C83.4247 37.9325 82.9444 37.9308 82.4685 37.9089C82.2179 37.8975 82.1204 37.9965 82.0413 38.2232C81.7646 39.0375 81.755 39.0349 80.8371 38.8633C81.3435 37.4098 81.849 35.9593 82.3536 34.5117C82.4148 34.3643 82.4654 34.2128 82.505 34.0581C82.5825 33.6571 82.8104 33.5634 83.2063 33.5582C83.6309 33.552 83.8049 33.7009 83.9337 34.0896C84.4218 35.5615 84.9439 37.022 85.4529 38.4877C85.4946 38.6129 85.5294 38.7328 85.5851 38.9009ZM83.9093 36.9677C83.6753 36.2742 83.456 35.6228 83.2368 34.9722L83.1497 34.9775C82.9305 35.6342 82.7147 36.2908 82.4859 36.9677H83.9093Z" fill="#F4F0E1" fill-opacity="0.7"></path><path d="M8.59297 47.8791H7.58541C7.55931 47.8283 7.53755 47.7915 7.52189 47.7521C7.17386 46.8766 7.17386 46.8766 6.24113 46.8766H6.0236C5.18658 46.8766 5.19528 46.8766 4.87944 47.6418C4.84644 47.7033 4.8007 47.7569 4.7453 47.7991C4.68991 47.8412 4.62616 47.8709 4.55838 47.8861C4.33477 47.9255 4.09897 47.8975 3.81011 47.8975C4.1216 47.0009 4.41917 46.1463 4.71761 45.2883C4.97863 44.5361 5.26837 43.7919 5.49546 43.0293C5.6077 42.6528 5.78259 42.5039 6.16282 42.5652C6.35274 42.5801 6.54347 42.5816 6.73359 42.5696L8.59297 47.8791ZM5.46066 45.9581H6.90239C6.6666 45.2576 6.44212 44.5895 6.18283 43.8164C5.92093 44.5922 5.69732 45.2576 5.4624 45.9581H5.46066Z" fill="#F4F0E1" fill-opacity="0.7"></path><path d="M75.8349 47.894C76.0594 47.2539 76.2648 46.6682 76.4692 46.085C76.8408 45.0195 77.2175 43.9548 77.5777 42.8848C77.6525 42.6633 77.7422 42.5591 77.998 42.5591C78.7558 42.5591 78.7541 42.5451 79.0073 43.2701C79.4841 44.6371 79.962 46.0036 80.4412 47.3695C80.4934 47.5175 80.5369 47.6689 80.6074 47.8948C80.2854 47.8948 79.9983 47.9395 79.7321 47.8756C79.6102 47.8458 79.4849 47.6129 79.4528 47.4588C79.3605 46.9991 79.1317 46.7872 78.6523 46.8722C78.4945 46.8963 78.3341 46.8963 78.1763 46.8722C77.5203 46.789 76.9713 46.852 76.8904 47.6926C76.8834 47.7679 76.7163 47.8738 76.6189 47.8861C76.3579 47.9036 76.0962 47.9062 75.8349 47.894ZM78.9324 45.959C78.694 45.2585 78.4704 44.5939 78.2068 43.8173C77.9458 44.6053 77.7239 45.2629 77.4907 45.959H78.9324Z" fill="#F4F0E1" fill-opacity="0.7"></path><path d="M47.6198 47.8458C48.0978 46.4729 48.5746 45.1038 49.0502 43.7385C49.112 43.5634 49.2034 43.3883 49.2338 43.2053C49.3208 42.6843 49.5923 42.4969 50.1222 42.5503C50.4197 42.5801 50.5685 42.6379 50.6703 42.9443C51.1784 44.4565 51.7144 45.9598 52.2365 47.4658C52.2791 47.5875 52.3157 47.7118 52.3652 47.8668C52.2295 47.8773 52.119 47.8765 52.012 47.8948C51.5239 47.9771 51.2115 47.8266 51.1515 47.2819C51.1149 46.951 50.92 46.8345 50.5816 46.8599C50.147 46.888 49.711 46.888 49.2764 46.8599C49.0076 46.845 48.9023 46.9527 48.8214 47.197C48.5638 47.9929 48.5508 47.9894 47.6198 47.8458ZM50.0299 43.9539L49.9334 43.9478L49.2608 45.9563H50.6973C50.465 45.2672 50.2466 44.6106 50.0299 43.9539Z" fill="#F4F0E1" fill-opacity="0.7"></path><path d="M72.7009 44.2612C72.4085 44.2612 72.1884 44.2892 71.9813 44.2507C71.9121 44.2357 71.8465 44.2071 71.7883 44.1665C71.73 44.1259 71.6803 44.0742 71.642 44.0143C71.3958 43.5485 71.0747 43.3296 70.6162 43.3672C70.1576 43.4049 69.6965 43.7017 69.6408 44.1614C69.556 44.8203 69.5446 45.4866 69.6069 46.1481C69.6669 46.7347 70.1089 47.0736 70.6249 47.1112C71.1173 47.1427 71.4532 46.8914 71.6794 46.3232C71.6951 46.2829 71.7168 46.2444 71.7403 46.1954H72.633C72.7287 47.2049 71.7194 47.9089 70.9529 47.9824C69.6573 48.1076 68.6968 47.3756 68.5828 46.0719C68.5128 45.3518 68.548 44.6252 68.6872 43.9154C68.8743 43.0266 69.7078 42.4899 70.6344 42.4838C71.5785 42.4777 72.3215 42.9654 72.593 43.777C72.6374 43.904 72.6522 44.0476 72.7009 44.2612Z" fill="#F4F0E1" fill-opacity="0.7"></path><path d="M75.3129 34.5169H73.758V33.6028H77.8274V34.502H76.3065V38.8931H75.3129V34.5169Z" fill="#F4F0E1" fill-opacity="0.7"></path><path d="M9.83197 34.5397V33.609H13.9022V34.5239H12.3813V38.8896H11.3981V34.5397H9.83197Z" fill="#F4F0E1" fill-opacity="0.7"></path><path d="M84.5628 43.4995H83.0401V47.8668H82.063V43.5161H80.5117V42.5889H84.5628V43.4995Z" fill="#F4F0E1" fill-opacity="0.7"></path><path d="M33.8637 33.6002H34.8208V37.9781H37.2475V38.8755H33.8637V33.6002Z" fill="#F4F0E1" fill-opacity="0.7"></path><path d="M21.8209 46.9387H24.2441V47.8738H20.8742V42.5897H21.8209V46.9387Z" fill="#F4F0E1" fill-opacity="0.7"></path><path d="M3.36636 46.9422V47.8686H0.00435043V42.6002H0.927511V46.9422H3.36636Z" fill="#F4F0E1" fill-opacity="0.7"></path><path d="M87.5376 37.9623H89.9564V38.8755H86.6049V33.6063H87.5376V37.9623Z" fill="#F4F0E1" fill-opacity="0.7"></path><path d="M79.8399 38.8957H78.8829V33.609H79.8399V38.8957Z" fill="#F4F0E1" fill-opacity="0.7"></path><path d="M55.4245 33.5941H56.3572V38.8843H55.4245V33.5941Z" fill="#F4F0E1" fill-opacity="0.7"></path><path d="M74.8509 47.8712H73.899V42.6011H74.8509V47.8712Z" fill="#F4F0E1" fill-opacity="0.7"></path><path d="M14.9594 38.8852V33.602H15.9165V38.8852H14.9594Z" fill="#F4F0E1" fill-opacity="0.7"></path><path d="M86.5735 47.8791H85.6452V42.5932H86.5735V47.8791Z" fill="#F4F0E1" fill-opacity="0.7"></path></svg> 