<?xml version="1.0" encoding="UTF-8"?> <svg xmlns="http://www.w3.org/2000/svg" width="185" height="48" viewBox="0 0 185 48" fill="none"><path d="M102.018 48C101.089 47.9006 100.158 47.8222 99.2335 47.691C95.1045 47.1058 91.2255 45.8688 87.9882 43.1207C85.4323 40.9478 83.8593 38.1857 83.3425 34.8514C83.2344 34.1559 83.1749 33.4485 83.0817 32.748C83.0281 32.3417 83.1809 32.2006 83.5974 32.2016C87.8953 32.2135 92.1902 32.2152 96.4822 32.2065C96.7519 32.2065 96.9572 32.2334 97.0158 32.5632C97.4859 35.2071 99.1769 36.6656 101.687 37.2577C103.795 37.7545 105.906 37.7853 107.959 36.9776C109.127 36.5186 110.056 35.7923 110.385 34.4997C110.528 33.961 110.505 33.3916 110.317 32.8669C110.129 32.3422 109.787 31.887 109.335 31.5617C108.082 30.6447 106.614 30.2423 105.15 29.8459C102.447 29.1136 99.7205 28.4609 97.0316 27.6789C94.2039 26.8563 91.4874 25.7564 89.1308 23.9203C86.5888 21.9392 85.0296 19.4076 84.7509 16.1518C84.5327 13.6053 84.7192 11.1155 85.7289 8.72899C86.7385 6.34248 88.3641 4.48753 90.5471 3.11444C93.2875 1.39163 96.3245 0.542146 99.5072 0.243088C101.428 0.054252 103.358 -0.0121184 105.287 0.0443779C109.14 0.175526 112.84 0.984275 116.163 3.06278C119.58 5.19891 121.549 8.26898 122.043 12.276C122.098 12.7161 122.155 13.1562 122.206 13.5974C122.241 13.9064 122.164 14.0882 121.785 14.0882C117.59 14.0783 113.394 14.0882 109.198 14.0683C109.049 14.0683 108.795 13.8905 108.765 13.7563C108.207 11.2337 106.238 10.1796 104.013 10.0166C102.613 9.91727 101.205 9.9292 99.8901 10.5671C99.173 10.9148 98.5521 11.3788 98.2089 12.108C97.6089 13.3818 98.0899 14.729 99.5201 15.3202C100.97 15.9037 102.46 16.3822 103.978 16.7519C107.874 17.7345 111.847 18.432 115.566 20.0445C117.522 20.894 119.335 21.973 120.835 23.4891C122.46 25.1087 123.547 27.1901 123.95 29.4504C124.476 32.3317 124.37 35.1733 123.29 37.9224C121.919 41.4068 119.399 43.8321 116.108 45.4982C113.186 46.9776 110.066 47.7298 106.804 47.9205C106.692 47.9365 106.583 47.9628 106.476 47.999L102.018 48Z" fill="#F4F0E1" fill-opacity="0.7"></path><path d="M184.989 3.48206C184.227 5.50095 183.467 7.52116 182.708 9.5427C182.247 10.7598 181.802 11.9848 181.306 13.188C180.924 14.117 180.202 14.5929 179.174 14.579C178.334 14.5641 178.209 14.4081 178.396 13.5696C178.424 13.5537 178.456 13.5229 178.481 13.5268C180.095 13.803 180.331 12.9585 180.691 11.8756C180.748 11.6997 180.664 11.4533 180.591 11.2605C179.6 8.68991 178.608 6.12191 177.616 3.55657C177.6 3.49594 177.591 3.43356 177.589 3.37078C178.431 3.08563 178.666 3.19989 178.956 3.99572C179.7 6.04044 180.447 8.08417 181.196 10.1269C181.223 10.2014 181.267 10.27 181.357 10.4478C181.491 10.0872 181.598 9.81096 181.696 9.53177C182.382 7.58839 183.07 5.646 183.746 3.69964C183.991 2.99621 184.552 3.33302 185 3.2903L184.989 3.48206Z" fill="#F4F0E1" fill-opacity="0.7"></path><path d="M74.4648 25.8965C75.1124 26.2323 75.77 26.5294 76.384 26.898C78.808 28.3536 80.2064 30.5583 80.7599 33.2726C81.0911 34.8951 81.2558 36.5583 81.4006 38.2116C81.5821 40.2434 81.6475 42.2851 81.8102 44.3209C81.8618 44.9697 82.0086 45.6185 82.5402 46.1093C82.6691 46.2275 82.682 46.5305 82.6542 46.7362C82.6433 46.8157 82.3736 46.9141 82.2218 46.9141C78.0562 46.924 73.8955 46.9141 69.7318 46.93C69.1605 46.93 68.9582 46.5613 68.8749 46.1451C68.6743 45.1803 68.5224 44.2061 68.4197 43.226C68.1568 40.4918 68.1449 37.7257 67.3019 35.0729C66.6711 33.0809 65.5315 31.5687 63.3634 31.1136C62.7204 30.9716 62.0656 30.8904 61.4075 30.8712C59.5092 30.8394 57.6088 30.8712 55.7085 30.8504C55.2552 30.8454 55.1233 30.9795 55.1243 31.4346C55.1392 36.3755 55.1243 41.3164 55.1471 46.2563C55.1471 46.8167 54.9785 46.9369 54.4529 46.9339C50.3725 46.9127 46.2918 46.9127 42.2108 46.9339C41.6941 46.9339 41.5463 46.7938 41.5463 46.2722C41.5615 35.8287 41.5655 25.3858 41.5582 14.9436C41.5582 10.4657 41.5771 5.98779 41.5632 1.50986C41.5632 0.985269 41.6762 0.803449 42.2396 0.805436C49.8766 0.824314 57.5037 0.780598 65.1357 0.834249C68.5278 0.859088 71.8325 1.46416 74.8863 3.04291C78.8705 5.10154 81.2736 8.28189 81.8092 12.8135C82.0701 15.0162 81.9084 17.1523 81.104 19.2189C80.0795 21.8577 78.192 23.7326 75.768 25.1096C75.3545 25.3451 74.928 25.5587 74.5074 25.7833C74.4965 25.7892 74.4955 25.8131 74.4648 25.8965ZM55.1332 16.3038C55.1332 17.7087 55.158 19.1126 55.1213 20.5165C55.1075 21.0589 55.2205 21.2527 55.8156 21.2417C57.9976 21.203 60.1796 21.2537 62.3547 21.2119C63.1928 21.2012 64.0271 21.0969 64.8422 20.901C66.4519 20.5035 67.6312 19.5458 68.0626 17.8796C68.5268 16.0912 68.3185 14.4022 67.0004 12.9933C65.8826 11.801 64.381 11.4871 62.8496 11.4444C60.4563 11.3778 58.0601 11.4384 55.6659 11.4165C55.2076 11.4165 55.1174 11.5795 55.1233 11.9928C55.1471 13.4295 55.1342 14.8671 55.1332 16.3038Z" fill="#F4F0E1" fill-opacity="0.7"></path><path d="M0.0267864 23.8419C0.0267864 16.3902 0.022488 8.93863 0.0138923 1.48701C0.0138923 0.931617 0.176551 0.804443 0.708166 0.80643C7.74512 0.823321 14.7831 0.787553 21.82 0.831269C25.0444 0.85114 28.1984 1.37375 31.1054 2.86804C35.2086 4.97635 37.8448 8.27692 38.9745 12.7648C39.7343 15.7812 39.7997 18.8066 38.9368 21.8061C37.6108 26.4211 34.7266 29.7326 30.2872 31.6203C28.2936 32.4686 26.1449 32.8896 23.9792 32.8563C20.6923 32.8186 17.4044 32.8454 14.1176 32.8196C13.6217 32.8196 13.4709 32.9567 13.4739 33.4604C13.4977 37.7396 13.4868 42.0198 13.5106 46.299C13.5106 46.7958 13.3816 46.9409 12.8768 46.9389C8.79711 46.9177 4.7171 46.9177 0.636757 46.9389C0.135889 46.9389 -0.000986478 46.8048 5.34089e-06 46.302C0.0158744 38.8173 0.0195157 31.3326 0.01092 23.8478L0.0267864 23.8419ZM13.4848 17.2139C13.4848 18.7837 13.4848 20.3525 13.4848 21.9223C13.4848 22.2095 13.4917 22.44 13.8894 22.434C16.3809 22.3972 18.8743 22.434 21.3628 22.3287C23.5627 22.2353 25.1049 21.0778 25.7804 18.9695C26.79 15.8249 25.4531 12.1776 20.9869 12.0147C18.677 11.9322 16.362 12.0087 14.0501 11.9918C13.6246 11.9918 13.4709 12.1061 13.4778 12.5512C13.4987 14.1081 13.4848 15.661 13.4848 17.2139Z" fill="#F4F0E1" fill-opacity="0.7"></path><path d="M138.83 30.2542C138.443 30.2542 138.056 30.3397 137.744 30.2234C137.545 30.1489 137.36 29.7922 137.327 29.5409C137.217 28.7102 137.176 27.8697 137.113 27.0321C137.014 25.7713 136.29 25.0878 135.02 25.0818C133.898 25.0768 132.774 25.0917 131.648 25.0749C131.278 25.0689 131.162 25.204 131.166 25.5657C131.181 26.9566 131.154 28.3416 131.182 29.7296C131.191 30.1896 131.011 30.2781 130.602 30.2771C130.192 30.2761 130.055 30.1777 130.057 29.7495C130.072 26.1807 130.072 22.6118 130.057 19.043C130.057 18.6665 130.156 18.5164 130.553 18.5204C132.221 18.5383 133.89 18.5135 135.558 18.5333C136.972 18.5502 138.022 19.2447 138.426 20.4688C138.775 21.5229 138.714 23.1861 137.762 23.9194C137.464 24.1469 137.142 24.3386 136.813 24.5572C137.992 25.0798 138.232 26.1131 138.307 27.2458C138.354 27.9522 138.415 28.6576 138.512 29.358C138.558 29.6412 138.706 29.9085 138.83 30.2542ZM133.553 19.5577C132.911 19.5577 132.264 19.5666 131.624 19.5577C131.327 19.5517 131.167 19.6252 131.171 19.968C131.184 21.205 131.182 22.4429 131.171 23.6799C131.171 23.978 131.288 24.0883 131.581 24.0853C132.718 24.0773 133.862 24.1141 134.994 24.0714C136.353 24.0207 137.119 23.4275 137.361 22.3307C137.722 20.7003 136.811 19.5656 135.136 19.5616C134.611 19.5557 134.081 19.5567 133.553 19.5577Z" fill="#F4F0E1" fill-opacity="0.7"></path><path d="M130.311 43.841C130.505 43.8537 130.7 43.8537 130.894 43.841C131.279 43.7864 131.457 43.9354 131.519 44.3239C131.787 45.993 133.007 46.7442 134.53 46.8902C135.429 46.9757 136.316 46.8902 137.085 46.3348C137.811 45.8102 138.071 45.077 138.001 44.2156C137.932 43.381 137.446 42.8246 136.68 42.5921C135.595 42.2613 134.481 42.0258 133.387 41.7248C132.972 41.6156 132.57 41.4645 132.186 41.2737C130.353 40.3298 130.233 37.7506 131.952 36.4818C133.408 35.4068 136.186 35.4783 137.586 36.6259C138.273 37.1892 138.605 37.9503 138.759 38.7968C138.779 38.9041 138.62 39.1534 138.561 39.1465C138.264 39.1117 137.902 39.1008 137.71 38.921C137.519 38.7411 137.506 38.3377 137.351 38.0715C136.675 36.9021 135.566 36.6437 134.331 36.7113C133.986 36.7356 133.646 36.8058 133.319 36.9199C132.394 37.2289 131.837 37.9701 131.851 38.8196C131.865 39.6512 132.319 40.2543 133.3 40.5414C134.406 40.8633 135.542 41.0789 136.659 41.3661C139.634 42.1301 139.65 45.0253 138.457 46.5266C137.925 47.1942 137.176 47.542 136.351 47.7308C135.156 48.0218 133.899 47.9315 132.757 47.4724C131.194 46.8356 130.437 45.6075 130.311 43.841Z" fill="#F4F0E1" fill-opacity="0.7"></path><path d="M165.49 40.2772C167.207 38.3328 169.51 38.7868 170.323 40.3994C170.521 40.1907 170.695 39.9841 170.889 39.7963C172.028 38.7034 173.999 38.6934 174.976 39.8599C175.314 40.28 175.513 40.7955 175.544 41.3343C175.609 43.2826 175.564 45.233 175.577 47.1833C175.577 47.541 175.478 47.689 175.1 47.6801C174.74 47.6801 174.559 47.5986 174.563 47.1833C174.582 45.4317 174.573 43.6801 174.57 41.9284C174.57 40.6487 173.975 39.9552 172.884 39.9413C171.601 39.9235 170.611 40.7769 170.596 41.9652C170.575 43.6671 170.579 45.3701 170.596 47.071C170.601 47.5032 170.497 47.692 170.019 47.689C169.541 47.686 169.43 47.5201 169.435 47.077C169.455 45.3264 169.428 43.5747 169.45 41.8231C169.46 41.0541 169.312 40.3854 168.535 40.0705C167.757 39.7555 167.034 39.9473 166.398 40.448C165.763 40.9488 165.447 41.6403 165.456 42.4769C165.474 44.0298 165.456 45.5837 165.466 47.1366C165.466 47.4873 165.411 47.686 164.986 47.686C164.562 47.686 164.452 47.531 164.455 47.1316C164.468 44.6696 164.468 42.2076 164.455 39.7456C164.455 39.3631 164.535 39.1823 164.971 39.1783C165.434 39.1733 165.491 39.3989 165.467 39.7605C165.465 39.933 165.472 40.1055 165.49 40.2772Z" fill="#F4F0E1" fill-opacity="0.7"></path><path d="M129.671 5.8934C129.671 4.10501 129.682 2.32358 129.664 0.539165C129.664 0.136778 129.764 -0.0112609 130.189 0.000661674C131.739 0.0453714 133.292 0.0314618 134.841 0.0900812C137.043 0.172546 138.186 1.96093 137.833 4.03348C137.546 5.71257 136.403 6.63161 134.644 6.66241C133.554 6.68228 132.463 6.68228 131.371 6.66241C130.992 6.65645 130.852 6.76176 130.858 7.16514C130.879 8.52034 130.846 9.87554 130.877 11.2297C130.888 11.7076 130.712 11.8159 130.282 11.807C129.877 11.7991 129.654 11.7573 129.663 11.2486C129.691 9.46421 129.671 7.67583 129.671 5.8934ZM130.87 3.34395C130.87 3.98777 130.875 4.6306 130.87 5.27442C130.87 5.53572 130.942 5.67184 131.232 5.67184C132.353 5.66091 133.477 5.70363 134.597 5.64998C135.985 5.58341 136.712 4.71306 136.691 3.24261C136.675 1.98975 135.83 1.13331 134.52 1.09754C133.449 1.06873 132.376 1.09754 131.303 1.08562C130.989 1.08562 130.859 1.18497 130.868 1.51483C130.881 2.12189 130.869 2.73292 130.87 3.34395Z" fill="#F4F0E1" fill-opacity="0.7"></path><path d="M153.967 29.1921C153.601 29.514 153.344 29.7952 153.036 30.0009C151.826 30.8056 149.418 30.7112 148.382 29.0153C147.26 27.1802 147.254 25.2398 148.203 23.352C149.242 21.2835 152.175 20.9069 153.674 22.6565C153.733 22.7261 153.806 22.7817 153.966 22.9288V21.9978C153.966 20.9904 153.984 19.9829 153.96 18.9755C153.949 18.5204 154.207 18.5214 154.528 18.5214C154.85 18.5214 155.063 18.5333 155.062 18.9566C155.049 22.591 155.049 26.225 155.062 29.8588C155.062 30.3099 154.791 30.2562 154.509 30.2641C154.226 30.2721 153.923 30.287 153.966 29.8479C153.982 29.671 153.967 29.4892 153.967 29.1921ZM148.631 26.1121C148.752 26.6745 148.829 27.3183 149.035 27.9144C149.371 28.8762 150.064 29.4842 151.118 29.5438C152.224 29.6074 153.079 29.1414 153.582 28.1459C154.236 26.8483 154.22 25.4981 153.702 24.1717C153.25 23.0132 152.256 22.427 151.058 22.5065C150.045 22.5731 149.234 23.2944 148.917 24.4737C148.78 24.9795 148.733 25.507 148.631 26.1151V26.1121Z" fill="#F4F0E1" fill-opacity="0.7"></path><path d="M152.586 10.6475C152.586 11.815 152.559 12.8661 152.598 13.9153C152.617 14.431 152.407 14.5273 151.962 14.4995C151.664 14.4806 151.556 14.3793 151.556 14.0862C151.561 10.6181 151.561 7.14991 151.556 3.68176C151.556 3.25453 151.802 3.2605 152.103 3.25453C152.405 3.24857 152.62 3.30918 152.591 3.68573C152.572 3.94704 152.591 4.21132 152.591 4.54615C152.709 4.45275 152.799 4.41103 152.844 4.34048C153.847 2.81439 156.407 2.67331 157.714 3.91127C158.35 4.52282 158.762 5.33082 158.884 6.20537C159.131 7.74836 159.083 9.26352 158.135 10.6128C156.915 12.3574 154.248 12.4836 152.853 10.8671C152.768 10.7894 152.679 10.7161 152.586 10.6475ZM152.487 7.5566C152.586 8.08716 152.632 8.63262 152.785 9.14628C153.118 10.27 154.02 10.9804 155.066 11.0191C156.355 11.0678 157.064 10.6128 157.561 9.35691C158.058 8.10107 158.01 6.84423 157.535 5.59534C157.172 4.64352 156.483 4.07024 155.463 4.01261C154.513 3.95797 153.723 4.33949 153.182 5.14625C152.71 5.86955 152.518 6.68228 152.487 7.5566Z" fill="#F4F0E1" fill-opacity="0.7"></path><path d="M140.422 26.2701C140.513 27.668 140.882 28.8195 142.23 29.3302C143.537 29.827 144.988 29.4157 145.554 28.0018C145.716 27.5975 145.852 27.5677 146.639 27.7038C146.63 29.0014 145.31 30.2979 143.862 30.4311C141.036 30.6924 139.23 28.9348 139.28 25.9522C139.305 24.4728 139.716 23.1474 140.976 22.2353C142.805 20.9139 145.963 21.3292 146.622 24.3605C146.721 24.8394 146.739 25.3381 146.811 25.825C146.873 26.2433 146.632 26.2731 146.315 26.2711C144.566 26.2641 142.816 26.2711 141.067 26.2711L140.422 26.2701ZM143.06 25.2984C143.785 25.2984 144.511 25.2904 145.236 25.2984C145.534 25.2984 145.672 25.199 145.633 24.896C145.534 24.0823 145.274 23.3292 144.557 22.8761C143.112 21.9631 140.91 22.5214 140.49 24.9069C140.432 25.2398 140.606 25.2994 140.887 25.2974C141.609 25.2934 142.334 25.2984 143.06 25.2984Z" fill="#F4F0E1" fill-opacity="0.7"></path><path d="M164.618 26.2701C163.694 26.2701 162.768 26.2701 161.841 26.2701C161.59 26.2701 161.356 26.284 161.403 26.6297C161.555 27.7713 161.914 28.8156 163.078 29.2925C164.367 29.826 165.905 29.5041 166.474 28.0624C166.688 27.521 167.075 27.6442 167.444 27.6879C167.502 27.6948 167.602 28.0466 167.55 28.1936C167.097 29.4981 166.166 30.2651 164.799 30.4281C162.206 30.7381 160.316 29.0202 160.268 26.4072C160.245 25.1335 160.419 23.9422 161.227 22.9099C162.084 21.823 163.244 21.4365 164.564 21.5597C166.011 21.6948 167.007 22.4966 167.44 23.9005C167.619 24.4777 167.707 25.0858 167.817 25.6829C167.891 26.0803 167.763 26.2939 167.296 26.279C166.402 26.2492 165.51 26.2701 164.618 26.2701ZM161.466 25.2924C163.111 25.2924 164.753 25.2924 166.397 25.2815C166.45 25.2643 166.498 25.2338 166.536 25.1927C166.574 25.1516 166.601 25.1015 166.614 25.047C166.583 23.9879 165.988 22.7827 164.775 22.5403C162.953 22.1747 161.531 23.353 161.466 25.2924Z" fill="#F4F0E1" fill-opacity="0.7"></path><path d="M167.142 9.18304C166.991 10.7201 165.581 11.9352 163.915 11.9918C161.779 12.0633 160.286 10.8423 159.849 8.727C159.565 7.33603 159.734 6.04442 160.438 4.81739C161.184 3.51882 162.694 2.85612 164.306 3.09855C165.686 3.30421 166.746 4.35737 167.057 5.85664C167.156 6.32162 167.193 6.79951 167.255 7.27145C167.304 7.63509 167.149 7.75829 166.78 7.75531C165.013 7.74041 163.246 7.76922 161.479 7.73643C160.931 7.7255 160.831 7.93017 160.909 8.40509C161.285 10.733 163.152 11.4851 164.782 10.7956C165.244 10.5838 165.619 10.2188 165.843 9.76228C166.134 9.11945 166.53 9.02804 167.142 9.18304ZM163.523 6.85615C164.265 6.85615 165.011 6.86807 165.748 6.84522C165.88 6.84522 166.113 6.70016 166.12 6.60975C166.199 5.49598 165.31 4.29378 164.255 4.05931C162.542 3.67778 161.258 4.73095 160.921 6.51039C160.859 6.8323 161.057 6.85913 161.298 6.85813C162.041 6.85416 162.783 6.85615 163.525 6.85615H163.523Z" fill="#F4F0E1" fill-opacity="0.7"></path><path d="M163.318 45.1743C163.078 46.3477 162.444 47.1614 161.388 47.6155C159.823 48.2881 157.863 47.7963 156.834 46.4401C155.92 45.232 155.78 43.841 156.034 42.3874C156.274 41.0332 156.884 39.9125 158.199 39.3323C160.059 38.5136 162.579 39.0193 163.231 41.7168C163.343 42.1788 163.38 42.6587 163.447 43.1306C163.502 43.528 163.323 43.6413 162.938 43.6373C161.22 43.6204 159.502 43.6304 157.781 43.6304C157.005 43.6304 156.981 43.6304 157.112 44.4113C157.489 46.6488 159.243 47.382 161.002 46.7054C161.456 46.5127 161.823 46.1589 162.033 45.7119C162.309 45.0641 162.706 45.0482 163.318 45.1743ZM159.71 42.76C160.437 42.76 161.163 42.7541 161.892 42.76C162.178 42.76 162.335 42.6676 162.301 42.3626C162.218 41.5996 161.97 40.8951 161.36 40.4063C160.567 39.7714 159.674 39.7188 158.746 40.0923C157.729 40.5027 157.349 41.384 157.127 42.3666C157.056 42.6795 157.251 42.764 157.531 42.764C158.256 42.7551 158.983 42.76 159.71 42.76Z" fill="#F4F0E1" fill-opacity="0.7"></path><path d="M183.835 45.1982C183.854 46.149 182.893 47.2688 181.887 47.6423C179.268 48.614 176.63 46.8286 176.551 44.0387C176.517 42.8703 176.582 41.7436 177.228 40.7044C178.395 38.8286 181.159 38.3606 182.782 39.8499C183.576 40.5802 183.873 41.5986 183.98 42.6547C184.08 43.6274 184.06 43.6294 183.052 43.6294C181.402 43.6294 179.751 43.6294 178.101 43.6294C177.816 43.6294 177.637 43.6711 177.64 44.0268C177.647 45.2191 178.41 46.457 179.524 46.7958C180.761 47.1734 182.015 46.9389 182.677 45.6751C183.003 45.0472 183.122 45.0025 183.835 45.1982ZM177.713 42.7531C179.355 42.7531 180.998 42.758 182.642 42.7412C182.726 42.7412 182.869 42.5653 182.881 42.461C182.969 41.6731 182.285 40.5067 181.534 40.1371C179.744 39.2508 177.687 40.6239 177.713 42.7531Z" fill="#F4F0E1" fill-opacity="0.7"></path><path d="M142.833 7.79605C142.924 6.04144 143.28 4.71108 144.509 3.79403C146.261 2.48553 149.667 2.68622 150.559 5.98878C150.956 7.44731 150.838 8.87802 150.075 10.1975C149.282 11.5705 147.992 12.0941 146.469 11.9729C144.901 11.8487 143.777 11.0141 143.239 9.51786C143.01 8.87603 142.921 8.18353 142.833 7.79605ZM143.961 7.52977C144.054 8.04344 144.106 8.57002 144.249 9.06878C144.566 10.1676 145.461 10.9386 146.438 11.0171C147.79 11.1244 148.728 10.6386 149.236 9.4503C149.777 8.18651 149.814 6.87503 149.236 5.61123C148.376 3.72349 146.128 3.40357 144.788 4.97238C144.172 5.6937 143.984 6.58292 143.961 7.52977Z" fill="#F4F0E1" fill-opacity="0.7"></path><path d="M149.401 40.1212C150.122 39.7615 150.779 39.2906 151.51 39.0988C153.135 38.6716 155.014 39.5032 154.961 41.7575C154.919 43.5459 154.941 45.3264 154.961 47.1108C154.966 47.537 154.847 47.686 154.404 47.69C153.942 47.69 153.859 47.5082 153.864 47.0939C153.882 45.4048 153.795 43.7158 153.89 42.0387C154.006 39.9741 152.311 39.6105 150.951 40.1261C149.949 40.5057 149.404 41.3571 149.402 42.4341C149.402 44.0039 149.393 45.5747 149.408 47.1436C149.408 47.5112 149.324 47.686 148.912 47.6801C148.531 47.6801 148.391 47.5589 148.393 47.1654C148.404 43.6125 148.404 40.0599 148.393 36.5076C148.393 36.1311 148.502 35.9791 148.9 35.9781C149.298 35.9771 149.41 36.1271 149.405 36.5056C149.389 37.7466 149.401 38.9826 149.401 40.1212Z" fill="#F4F0E1" fill-opacity="0.7"></path><path d="M182.416 24.0068C181.457 24.2353 181.388 24.1906 181.079 23.51C180.97 23.2881 180.816 23.0909 180.628 22.9308C179.961 22.3446 178.435 22.3346 177.752 22.8881C177.039 23.4643 177.109 24.4777 177.962 24.8145C178.891 25.1762 179.883 25.3779 180.838 25.665C182.235 26.0813 182.792 27.0391 182.541 28.4469C182.388 29.3083 181.858 29.8538 181.115 30.1499C179.869 30.6467 178.591 30.6308 177.372 30.0317C176.395 29.5518 175.975 28.6933 175.884 27.6402C176.8 27.4415 176.886 27.4703 177.147 28.2472C177.481 29.2408 178.747 29.6849 179.786 29.5051C180.236 29.4296 180.663 29.2541 181.036 28.9914C181.681 28.5175 181.808 27.1901 180.738 26.8165C179.902 26.5254 179.031 26.3327 178.186 26.0654C177.358 25.8031 176.547 25.4872 176.269 24.5344C176.009 23.6402 176.23 22.8612 176.918 22.2492C178.108 21.1861 180.641 21.3133 181.671 22.5284C182.007 22.9318 182.159 23.4911 182.416 24.0068Z" fill="#F4F0E1" fill-opacity="0.7"></path><path d="M174.866 24.0435C174.019 24.2174 173.911 24.2134 173.641 23.4971C173.151 22.1995 170.803 22.3048 170.187 22.9785C169.592 23.6342 169.748 24.5572 170.601 24.8712C171.432 25.1762 172.313 25.3441 173.161 25.6074C174.715 26.0893 175.19 26.6923 175.158 28.0714C175.132 29.2239 174.414 30.0645 173.007 30.3566C171.625 30.6407 170.244 30.5821 169.199 29.4465C168.87 29.0898 168.703 28.5711 168.514 28.1052C168.46 27.971 168.613 27.6084 168.641 27.6084C168.964 27.6521 169.504 27.3282 169.573 27.8389C169.806 29.5478 172.106 29.8638 173.256 29.2696C173.834 28.9715 174.098 28.4867 174.071 27.8598C174.042 27.208 173.615 26.8662 173.03 26.6933C172.145 26.437 171.244 26.2264 170.37 25.9392C169.255 25.5726 168.741 24.895 168.733 23.9035C168.727 22.9556 169.243 22.2144 170.27 21.817C170.769 21.6172 171.303 21.5199 171.84 21.531C172.377 21.5421 172.907 21.6613 173.397 21.8816C174.298 22.281 174.751 23.0381 174.866 24.0435Z" fill="#F4F0E1" fill-opacity="0.7"></path><path d="M147.306 41.6711C146.428 41.8698 146.314 41.8499 146.049 41.1296C145.492 39.6393 142.854 39.4406 141.81 40.9031C140.918 42.15 140.885 44.607 141.769 45.8758C142.443 46.8435 143.402 47.083 144.473 46.8843C145.429 46.7074 146.044 46.0894 146.259 45.1147C146.399 44.457 146.902 44.8107 147.324 44.7094C147.284 45.7496 146.927 46.5971 146.134 47.1774C144.868 48.0914 143.464 48.1361 142.102 47.4675C140.796 46.8246 140.236 45.6195 140.085 44.2116C139.942 42.8832 140.085 41.6085 140.873 40.4818C141.744 39.2419 143.006 38.8583 144.435 39.0124C145.634 39.1415 146.598 39.7019 147.082 40.8822C147.17 41.141 147.245 41.4043 147.306 41.6711Z" fill="#F4F0E1" fill-opacity="0.7"></path><path d="M175.275 1.99173V2.09109C175.275 3.21877 175.275 3.23367 176.4 3.25056C176.781 3.25652 176.866 3.40555 176.87 3.75429C176.876 4.12886 176.702 4.18151 176.388 4.1845C175.274 4.19642 175.275 4.20536 175.275 5.30124C175.275 6.80481 175.275 8.30805 175.275 9.81096C175.275 10.6843 175.413 10.8224 176.267 10.8224C176.511 10.8224 176.771 10.7558 176.774 11.1592C176.774 11.5099 176.746 11.7553 176.309 11.807C174.974 11.957 174.127 11.4622 174.171 9.96794C174.224 8.30176 174.184 6.63161 174.183 4.96344C174.183 4.03944 174.203 4.1686 173.424 4.1845C173.082 4.19046 172.96 4.0762 172.956 3.73044C172.956 3.3529 173.107 3.25255 173.458 3.25255C174.183 3.25255 174.183 3.23665 174.184 2.52924C174.184 2.03247 174.193 1.53569 174.184 1.03892C174.175 0.611694 174.482 0.681243 174.735 0.679256C174.988 0.677269 175.293 0.617656 175.273 1.04587C175.259 1.35984 175.273 1.6738 175.273 1.98776L175.275 1.99173Z" fill="#F4F0E1" fill-opacity="0.7"></path><path d="M139.789 4.62663C140.013 4.38718 140.159 4.23715 140.299 4.08216C140.721 3.61071 141.299 3.30882 141.926 3.23268C142.633 3.13332 142.758 3.22672 142.658 3.94704C142.641 4.06428 142.46 4.25106 142.351 4.2451C140.764 4.21728 139.748 5.63607 139.782 7.04194C139.816 8.44781 139.775 9.87952 139.798 11.2983C139.805 11.7086 139.645 11.806 139.276 11.7951C138.928 11.7871 138.687 11.7822 138.691 11.3063C138.712 8.78198 138.712 6.25737 138.691 3.73243C138.691 3.2605 138.933 3.25354 139.28 3.24559C139.655 3.23566 139.836 3.34495 139.793 3.75032C139.768 3.9997 139.789 4.24908 139.789 4.62663Z" fill="#F4F0E1" fill-opacity="0.7"></path><path d="M169.33 4.61073C169.592 4.31266 169.739 4.0454 169.966 3.91524C170.44 3.63427 170.946 3.41112 171.473 3.25056C172.125 3.07172 172.21 3.19492 172.189 3.87252C172.18 4.16065 172.097 4.26001 171.785 4.26994C170.345 4.31664 169.337 5.37775 169.331 6.82435C169.325 8.31468 169.315 9.79606 169.339 11.2814C169.346 11.7176 169.17 11.807 168.784 11.7991C168.425 11.7911 168.2 11.7593 168.204 11.3023C168.221 8.79257 168.221 6.28353 168.204 3.77515C168.204 3.2903 168.433 3.2605 168.811 3.24758C169.228 3.23367 169.378 3.38767 169.336 3.79204C169.31 4.02155 169.33 4.25305 169.33 4.61073Z" fill="#F4F0E1" fill-opacity="0.7"></path><path d="M157.344 23.0609C157.869 22.4022 158.461 21.9482 159.229 21.7524C160.194 21.507 160.428 21.7445 160.229 22.7261C158.345 22.7658 157.347 23.7962 157.347 25.7067C157.347 27.061 157.333 28.4162 157.354 29.7704C157.361 30.1678 157.213 30.2761 156.836 30.2761C156.459 30.2761 156.309 30.1767 156.311 29.7733C156.325 27.263 156.325 24.7523 156.311 22.2412C156.311 21.8071 156.486 21.7286 156.87 21.7196C157.296 21.7087 157.373 21.9074 157.351 22.2601C157.331 22.5254 157.344 22.7937 157.344 23.0609Z" fill="#F4F0E1" fill-opacity="0.7"></path></svg> 